<?xml version="1.0" encoding="UTF-8"?>
<!DOCTYPE svg PUBLIC "-//W3C//DTD SVG 1.1//EN" "http://www.w3.org/Graphics/SVG/1.1/DTD/svg11.dtd">
<!-- Creator: CorelDRAW -->
<svg xmlns="http://www.w3.org/2000/svg" xml:space="preserve" style="shape-rendering:geometricPrecision; text-rendering:geometricPrecision; image-rendering:optimizeQuality; fill-rule:evenodd; clip-rule:evenodd" viewBox="0 0 1.32521 0.35488" xmlns:xlink="http://www.w3.org/1999/xlink">
    <defs>
        <style type="text/css">
        <![CDATA[ .str0 {
            stroke: #FEFEFE;
            stroke-width: 0.00621637
        }

        .fil2 {
            fill: none
        }

        .fil1 {
            fill: #DA7817
        }

        .fil0 {
            fill: #FEFEFE;
            fill-rule: nonzero
        }

        ]]>
        </style>
    </defs>
    <g id="Layer_x0020_1">
        <metadata id="CorelCorpID_0Corel-Layer" />
        <g id="_312254872">
            <path id="_312259296" class="fil0" d="M0.501046 0.33008c0.00298075,-1.86491e-005 0.00572217,-0.000298386 0.00822426,-0.000814345 0.0025052,-0.000534608 0.00480836,-0.00123084 0.00691571,-0.00208559 0.00210735,-0.000854751 0.00405308,-0.00178721 0.00584339,-0.00278183 0.00178721,-0.00099462 0.0034563,-0.00196748 0.00500729,-0.00290305l-0.00393496 -0.00822426c-0.00316103,0.00162869 -0.0059211,0.00291859 -0.00832683,0.0038728 -0.00238398,0.000954213 -0.00456903,0.00165045 -0.00655827,0.00206694 -0.00198613,0.000419605 -0.00393186,0.000637178 -0.00586204,0.000615421 -0.00113138,0 -0.002126,-0.000593664 -0.00301805,-0.0017468 -0.000913807,-0.00115314 -0.00161004,-0.00286264 -0.00214776,-0.0050881 -0.000515959,-0.00222546 -0.000773938,-0.00496688 -0.000792588,-0.00818696 0,-0.00210424 0.000118111,-0.00437011 0.00039474,-0.00681625 0.000279737,-0.00242439 0.000717991,-0.00488607 0.00135206,-0.00737262 0.000615421,-0.00248344 0.00142977,-0.00486742 0.00246479,-0.00713329 0.00103192,-0.00228452 0.00230627,-0.00431105 0.00381374,-0.00609826 0.00153234,-0.00179032 0.00331954,-0.00322008 0.00536784,-0.00425511 0.00206384,-0.00103192 0.00442917,-0.00156963 0.00711153,-0.00158828 0.00218816,1.86491e-005 0.00415254,0.000379199 0.00586204,0.00109408 0.00172815,0.000693126 0.00326049,0.00154788 0.0046312,0.00260155l0.00584028 -0.0076306c-0.000991511,-0.000972862 -0.00228452,-0.00190843 -0.00385415,-0.00278183 -0.00156963,-0.000895158 -0.00335684,-0.00161004 -0.00540514,-0.00218506 -0.00204519,-0.000556365 -0.00429241,-0.000854751 -0.00671679,-0.0008734 -0.00423024,1.86491e-005 -0.00806574,0.000792588 -0.0115438,0.00232492 -0.0034563,0.00152923 -0.00653652,0.00367388 -0.00920023,0.0064557 -0.00266372,0.00276318 -0.00490783,0.00602367 -0.00673544,0.0097566 -0.00183072,0.00373604 -0.00320143,0.00782952 -0.00413389,0.0122804 -0.000935564,0.00445092 -0.00141112,0.00912253 -0.00141112,0.0140117 -1.86491e-005,0.00298075 0.000257979,0.00586204 0.000832994,0.00864387 0.000578123,0.00278183 0.00149193,0.00530567 0.00278183,0.00753114 0.00129301,0.00222546 0.00302116,0.00399402 0.00518756,0.00530567 0.00216641,0.00131165 0.00483012,0.00196748 0.0080098,0.00200478zm0.0566312 0c0.00417429,-1.86491e-005 0.00788858,-0.000693126 0.0111491,-0.00198613 0.00325738,-0.00131165 0.00612002,-0.00309886 0.00856305,-0.00538649 0.00246479,-0.00228452 0.00453174,-0.00490783 0.00625989,-0.00786682 0.0017095,-0.00298075 0.00308021,-0.00614178 0.00415254,-0.00949862 0.00105368,-0.0033786 0.00182761,-0.00677585 0.00230627,-0.0102353 0.000475553,-0.00347495 0.000714883,-0.0068349 0.000714883,-0.0100923 0,-0.00298075 -0.000416497,-0.00584339 -0.00123395,-0.00858481 -0.000832994,-0.00272277 -0.00210424,-0.00518756 -0.0037951,-0.00735397 -0.00168775,-0.00216641 -0.00381374,-0.0038728 -0.00639665,-0.00514716 -0.00256425,-0.00124949 -0.00560406,-0.00190532 -0.00908212,-0.00192708 -0.00504769,2.17573e-005 -0.00961673,0.00109408 -0.0136916,0.00320143 -0.00409348,0.00210424 -0.00759019,0.00510675 -0.0104901,0.00901996 -0.0029217,0.00391631 -0.00514716,0.00858481 -0.00671679,0.0140304 -0.00155099,0.00544243 -0.00234668,0.0115252 -0.00236533,0.0182202 0,0.00331954 0.000456903,0.0064184 0.00135206,0.00928104 0.000892049,0.00284088 0.0022037,0.00534608 0.00395361,0.00749073 0.0017468,0.00214776 0.00389456,0.00381685 0.00645881,0.00500729 0.00256115,0.00119354 0.00552325,0.00180896 0.00886144,0.00182761zm0.00238398 -0.00989336c-0.00224411,-2.17573e-005 -0.00409348,-0.000460012 -0.0055419,-0.00133341 -0.00143287,-0.000854751 -0.0025456,-0.00200789 -0.0033413,-0.0034563 -0.000792588,-0.00147017 -0.0013303,-0.00308021 -0.00164734,-0.00487053 -0.000298386,-0.00178721 -0.000456903,-0.00361482 -0.000438254,-0.00548284 2.17573e-005,-0.00484877 0.000515959,-0.00931834 0.00151058,-0.0133932 0.00099462,-0.00405308 0.00234357,-0.00759019 0.00405308,-0.0106113 0.00172815,-0.0029994 0.00369563,-0.00532432 0.00590245,-0.00697477 0.00220681,-0.0016691 0.00455038,-0.0025052 0.00701518,-0.00252385 0.0025829,-1.86491e-005 0.0047089,0.000475553 0.006378,0.00147017 0.0016691,0.00099462 0.0029217,0.00256425 0.00373604,0.00473066 0.000814345,0.00216641 0.00121219,0.00498553 0.00121219,0.00846359 -1.86491e-005,0.00516581 -0.000556365,0.00983741 -0.00159139,0.0140086 -0.00103192,0.00417429 -0.00242128,0.00775182 -0.00421159,0.0107108 -0.00176856,0.00298075 -0.00377645,0.00526527 -0.00602056,0.00685666 -0.00224411,0.00158828 -0.00456903,0.00238398 -0.00701518,0.00240574zm0.0395828 0.0346936l0.0113262 0 0.00870603 -0.0821463 0.0141858 0 0.000954213 -0.00918158 -0.0141858 0 0.000475553 -0.00488918c0.000257979,-0.0029217 0.000913807,-0.00528392 0.00196748,-0.00707423 0.00103192,-0.00178721 0.00252385,-0.00309886 0.00445092,-0.00389456 0.00192708,-0.000814345 0.00435146,-0.00121219 0.00729181,-0.00119044 0.00266372,1.86491e-005 0.00496999,0.000217573 0.00695612,0.000575014 0.00198613,0.000357441 0.0037951,0.000773938 0.00544554,0.00121219l0.00309886 -0.00929969c-0.00121219,-0.000456903 -0.00266372,-0.0008734 -0.00431105,-0.00127125 -0.0016691,-0.000397848 -0.00341901,-0.000714883 -0.00524662,-0.000972862 -0.00182761,-0.00023933 -0.00361793,-0.000379199 -0.00534608,-0.000379199 -0.00317967,-4.04064e-005 -0.00621948,0.000257979 -0.00911942,0.0008734 -0.00290305,0.000618529 -0.00552636,0.00173126 -0.00788858,0.00335995 -0.00234668,0.00162869 -0.00429241,0.00393496 -0.00584339,0.00693436 -0.00155099,0.0029994 -0.0025425,0.00685666 -0.00302116,0.011606l-0.000357441 0.00441052 -0.00953902 0 -0.00107232 0.00918158 0.00953902 0 -0.0084667 0.0821463zm0.0386285 0l0.0113262 0 0.00870603 -0.0821463 0.0141858 0 0.000954213 -0.00918158 -0.0141858 0 0.000475553 -0.00488918c0.000257979,-0.0029217 0.000913807,-0.00528392 0.00196748,-0.00707423 0.00103192,-0.00178721 0.00252385,-0.00309886 0.00445092,-0.00389456 0.00192708,-0.000814345 0.00435146,-0.00121219 0.00729181,-0.00119044 0.00266372,1.86491e-005 0.00496999,0.000217573 0.00695612,0.000575014 0.00198613,0.000357441 0.0037951,0.000773938 0.00544554,0.00121219l0.00309886 -0.00929969c-0.00121219,-0.000456903 -0.00266372,-0.0008734 -0.00431105,-0.00127125 -0.0016691,-0.000397848 -0.00341901,-0.000714883 -0.00524662,-0.000972862 -0.00182761,-0.00023933 -0.00361793,-0.000379199 -0.00534608,-0.000379199 -0.00317967,-4.04064e-005 -0.00621948,0.000257979 -0.00911942,0.0008734 -0.00290305,0.000618529 -0.00552636,0.00173126 -0.00788858,0.00335995 -0.00234668,0.00162869 -0.00429241,0.00393496 -0.00584339,0.00693436 -0.00155099,0.0029994 -0.0025425,0.00685666 -0.00302116,0.011606l-0.000357441 0.00441052 -0.00953902 0 -0.00107232 0.00918158 0.00953902 0 -0.0084667 0.0821463zm0.0538897 -0.0248002c0.00367698,-1.86491e-005 0.00707423,-0.000435146 0.0101544,-0.00121219 0.00310197,-0.000792588 0.00600191,-0.00182761 0.00870603,-0.00309886 0.00270101,-0.00127125 0.00532432,-0.00266372 0.00784817,-0.00415254l-0.00417429 -0.00834548c-0.00238398,0.0012899 -0.00474931,0.00242439 -0.00707423,0.0034159 -0.00232492,0.00101327 -0.00458768,0.00180896 -0.0067945,0.00238398 -0.00218506,0.000578123 -0.00429241,0.000854751 -0.00627854,0.000876509 -0.00248655,0 -0.004252,-0.00119354 -0.00534608,-0.00355887 -0.00107232,-0.00238398 -0.00159139,-0.0059211 -0.00156963,-0.01063l0 -0.00274142 0.019911 -0.00715505c0.00234357,-0.000792588 0.00462809,-0.00172815 0.00681625,-0.00280048 0.00218506,-0.00107232 0.00415254,-0.00234668 0.0059211,-0.0037951 0.0017468,-0.00147017 0.00313927,-0.00317967 0.00417119,-0.00512851 0.00101327,-0.00194572 0.00155099,-0.00421159 0.00156963,-0.00675409 0,-0.00206694 -0.000335684,-0.00405618 -0.00101327,-0.0059242 -0.000693126,-0.00186491 -0.0017468,-0.00351536 -0.00317967,-0.00496688 -0.00144841,-0.00147017 -0.00329779,-0.00260155 -0.00556365,-0.00343765 -0.00226276,-0.000854751 -0.00496688,-0.00127125 -0.0081248,-0.0012899 -0.00433281,1.86491e-005 -0.00824913,0.000814345 -0.0117241,0.00236222 -0.00345941,0.00155099 -0.00649922,0.00371739 -0.00910077,0.00648057 -0.00260466,0.00276007 -0.00478972,0.0059988 -0.00651787,0.00967578 -0.00173126,0.00367698 -0.00304291,0.00764925 -0.00389456,0.0119417 -0.000876509,0.00427376 -0.00131165,0.00870603 -0.00131165,0.0132937 -2.17573e-005,0.00310197 0.000217573,0.00610137 0.000714883,0.00902307 0.00049731,0.00289994 0.00134895,0.00552325 0.00256115,0.00786993 0.00121219,0.00232492 0.00290305,0.00419294 0.00506945,0.00556365 0.00216641,0.00137071 0.00490783,0.00206694 0.00822426,0.00210424zm-0.0034563 -0.0367201c0.000537716,-0.00288129 0.00129301,-0.00564447 0.00228452,-0.00828642 0.000975971,-0.00262331 0.00224722,-0.00496999 0.00377645,-0.00703383 0.00151058,-0.00206694 0.00335684,-0.00369874 0.0055046,-0.00491093 0.00214465,-0.00119044 0.00464985,-0.00180586 0.00750938,-0.00182761 0.00117489,0 0.00228763,0.000220681 0.0033413,0.000677585 0.00103192,0.000435146 0.00188667,0.00117179 0.00256115,0.00214465 0.000655827,0.00099462 0.00099462,0.00226587 0.00101327,0.00385415 0,0.00169085 -0.000733532,0.00326049 -0.00216641,0.00473066 -0.00142977,0.00145152 -0.00347495,0.00270101 -0.00617907,0.00373604l-0.0176452 0.00691571zm0.0581821 0.0367201c0.00367698,-1.86491e-005 0.00707423,-0.000435146 0.0101544,-0.00121219 0.00310197,-0.000792588 0.00600191,-0.00182761 0.00870603,-0.00309886 0.00270101,-0.00127125 0.00532432,-0.00266372 0.00784817,-0.00415254l-0.00417429 -0.00834548c-0.00238398,0.0012899 -0.00474931,0.00242439 -0.00707423,0.0034159 -0.00232492,0.00101327 -0.00458768,0.00180896 -0.0067945,0.00238398 -0.00218506,0.000578123 -0.00429241,0.000854751 -0.00627854,0.000876509 -0.00248655,0 -0.004252,-0.00119354 -0.00534608,-0.00355887 -0.00107232,-0.00238398 -0.00159139,-0.0059211 -0.00156963,-0.01063l0 -0.00274142 0.019911 -0.00715505c0.00234357,-0.000792588 0.00462809,-0.00172815 0.00681625,-0.00280048 0.00218506,-0.00107232 0.00415254,-0.00234668 0.0059211,-0.0037951 0.0017468,-0.00147017 0.00313927,-0.00317967 0.00417119,-0.00512851 0.00101327,-0.00194572 0.00155099,-0.00421159 0.00156963,-0.00675409 0,-0.00206694 -0.000335684,-0.00405618 -0.00101327,-0.0059242 -0.000693126,-0.00186491 -0.0017468,-0.00351536 -0.00317967,-0.00496688 -0.00144841,-0.00147017 -0.00329779,-0.00260155 -0.00556365,-0.00343765 -0.00226276,-0.000854751 -0.00496688,-0.00127125 -0.0081248,-0.0012899 -0.00433281,1.86491e-005 -0.00824913,0.000814345 -0.0117241,0.00236222 -0.00345941,0.00155099 -0.00649922,0.00371739 -0.00910077,0.00648057 -0.00260466,0.00276007 -0.00478972,0.0059988 -0.00651787,0.00967578 -0.00173126,0.00367698 -0.00304291,0.00764925 -0.00389456,0.0119417 -0.000876509,0.00427376 -0.00131165,0.00870603 -0.00131165,0.0132937 -2.17573e-005,0.00310197 0.000217573,0.00610137 0.000714883,0.00902307 0.00049731,0.00289994 0.00134895,0.00552325 0.00256115,0.00786993 0.00121219,0.00232492 0.00290305,0.00419294 0.00506945,0.00556365 0.00216641,0.00137071 0.00490783,0.00206694 0.00822426,0.00210424zm-0.0034563 -0.0367201c0.000537716,-0.00288129 0.00129301,-0.00564447 0.00228452,-0.00828642 0.000975971,-0.00262331 0.00224722,-0.00496999 0.00377645,-0.00703383 0.00151058,-0.00206694 0.00335684,-0.00369874 0.0055046,-0.00491093 0.00214465,-0.00119044 0.00464985,-0.00180586 0.00750938,-0.00182761 0.00117489,0 0.00228763,0.000220681 0.0033413,0.000677585 0.00103192,0.000435146 0.00188667,0.00117179 0.00256115,0.00214465 0.000655827,0.00099462 0.00099462,0.00226587 0.00101327,0.00385415 0,0.00169085 -0.000733532,0.00326049 -0.00216641,0.00473066 -0.00142977,0.00145152 -0.00347495,0.00270101 -0.00617907,0.00373604l-0.0176452 0.00691571zm0.0702264 0.0352903l0.0116837 0 0.00488918 -0.0454261c0.000615421,-0.000376091 0.00151058,-0.000954213 0.00266372,-0.0017468 0.00117179,-0.000777047 0.00246168,-0.00165045 0.00393186,-0.00260466 0.00145152,-0.000932456 0.0029217,-0.00184626 0.00443227,-0.00274142 0.00151058,-0.0008734 0.00290305,-0.00159139 0.00421159,-0.00216641 0.00131165,-0.000556365 0.00238709,-0.000854751 0.00324184,-0.0008734 0.0017468,-2.17573e-005 0.00298075,0.000276629 0.00365523,0.000932456 0.000674476,0.000655827 0.00101327,0.00176856 0.00099462,0.0033786 0,0.00158828 -0.000161626,0.00381685 -0.000478661,0.00665774l-0.00488918 0.04459 0.0116868 0 0.00488607 -0.0462591c0.000456903,-0.000279737 0.00121219,-0.000777047 0.00230627,-0.00149193 0.00107232,-0.000696234 0.00232492,-0.00151058 0.00377645,-0.00238398 0.00142977,-0.000895158 0.00291859,-0.00176856 0.00445092,-0.00260155 0.00152923,-0.000854751 0.00298075,-0.00155099 0.0043297,-0.0020887 0.00135206,-0.000556365 0.00246479,-0.000832994 0.0033786,-0.000854751 0.00174991,-1.86491e-005 0.00298075,0.000298386 0.00365834,0.000975971 0.000674476,0.000655827 0.00101327,0.00180586 0.000991511,0.0034159 0,0.00162869 -0.000158518,0.00385726 -0.000475553,0.00669814l-0.00488918 0.04459 0.0116837 0 0.00500729 -0.046974c0.000419605,-0.00353712 0.000578123,-0.00658003 0.000537716,-0.00908212 -5.90555e-005,-0.0025052 -0.000475553,-0.00455038 -0.00123084,-0.00614178 -0.000777047,-0.00156963 -0.00200789,-0.00274142 -0.00371739,-0.00347495 -0.0017095,-0.00073664 -0.00401267,-0.00109408 -0.00691571,-0.00109408 -0.00200478,1.86491e-005 -0.00407172,0.000397848 -0.00619772,0.00113138 -0.002126,0.00073664 -0.00419294,0.0016691 -0.00621948,0.00278183 -0.00200789,0.00113449 -0.00389767,0.00228763 -0.00560406,0.00347806 -0.0017095,0.00119354 -0.00317967,0.00226587 -0.00439187,0.00322008 -5.90555e-005,-0.00242439 -0.000456903,-0.00441052 -0.00117179,-0.00598015 -0.00073664,-0.00156963 -0.00194883,-0.00274453 -0.00365834,-0.00349982 -0.00168775,-0.000755289 -0.00401267,-0.00113138 -0.00697477,-0.00113138 -0.00200478,1.86491e-005 -0.00405308,0.000438254 -0.00613867,0.0012526 -0.0020887,0.000792588 -0.00411524,0.00180896 -0.00608272,0.0029994 -0.00196748,0.00121219 -0.00377334,0.00244303 -0.00544243,0.00369563 -0.0016691,0.0012526 -0.00310197,0.00232492 -0.00427376,0.00326049l0.000954213 -0.00953902 -0.0116837 0 -0.00691571 0.0650979zm0.111714 0.00155099c0.00214465,-2.17573e-005 0.00435146,-0.000519067 0.00663598,-0.00151058 0.00226587,-0.00101327 0.00464985,-0.00244614 0.00711464,-0.00429241 0.00248344,-0.00184937 0.0050881,-0.00403443 0.00782952,-0.00659868l-0.00119354 0.0108507 0.0116837 0 0.00667949 -0.0647404c-0.00117489,-0.000198924 -0.0025052,-0.000376091 -0.00401578,-0.000515959 -0.00148882,-0.000139868 -0.00302116,-0.00023933 -0.00456903,-0.000317035 -0.00156963,-8.08128e-005 -0.00303981,-0.000121219 -0.00441362,-0.000121219 -0.00413078,2.17573e-005 -0.00798804,0.000655827 -0.0115625,0.00192708 -0.00357752,0.0012526 -0.00685666,0.00302116 -0.00981876,0.00528703 -0.00295899,0.00224411 -0.0055823,0.00488918 -0.00788858,0.00788858 -0.00230317,0.00302116 -0.00423024,0.00627854 -0.00582163,0.009797 -0.00158828,0.00351536 -0.00278183,0.00717369 -0.00361482,0.010947 -0.000817453,0.00377645 -0.00123395,0.00757154 -0.00123395,0.0113666 -1.86491e-005,0.00395672 0.000456903,0.00745343 0.00141112,0.0104342 0.000935564,0.0029994 0.00246479,0.00534608 0.00455038,0.00703383 0.00208559,0.0016691 0.00483012,0.00252385 0.00822737,0.00256425zm0.00298075 -0.0107326c-0.00127125,-1.86491e-005 -0.00230627,-0.000494202 -0.00312062,-0.00142977 -0.000814345,-0.000913807 -0.00141112,-0.00216641 -0.00178721,-0.00373604 -0.000397848,-0.00158828 -0.000578123,-0.00335684 -0.000578123,-0.00532432 0,-0.00333819 0.000379199,-0.00671679 0.00113449,-0.010114 0.000773938,-0.00341901 0.00186802,-0.00665774 0.00331643,-0.0097566 0.00145152,-0.00310197 0.00320143,-0.0058838 0.00528703,-0.00830818 0.00206694,-0.00244303 0.00443227,-0.00437011 0.00707423,-0.00578123 0.00264196,-0.00141112 0.005545,-0.00214776 0.00870292,-0.00216641 0.000556365,0 0.00113449,0 0.00174991,1.86491e-005 0.000596772,0 0.00109097,4.04064e-005 0.00147017,9.9462e-005l-0.00357752 0.0343392c-0.000733532,0.000655827 -0.0017095,0.00148882 -0.0029217,0.00250209 -0.00121219,0.00099462 -0.00256115,0.00206694 -0.00403132,0.00316103 -0.00149193,0.00111273 -0.00300251,0.00216641 -0.00455349,0.00313927 -0.00154788,0.00099462 -0.00303981,0.00178721 -0.00445092,0.00240263 -0.00140801,0.000618529 -0.00264196,0.000935564 -0.00371428,0.000954213zm0.0633106 0.0106113c0.00298075,-1.86491e-005 0.00572217,-0.000298386 0.00822426,-0.000814345 0.0025052,-0.000534608 0.00480836,-0.00123084 0.00691571,-0.00208559 0.00210735,-0.000854751 0.00405308,-0.00178721 0.00584339,-0.00278183 0.00178721,-0.00099462 0.0034563,-0.00196748 0.00500729,-0.00290305l-0.00393496 -0.00822426c-0.00316103,0.00162869 -0.0059211,0.00291859 -0.00832683,0.0038728 -0.00238398,0.000954213 -0.00456903,0.00165045 -0.00655827,0.00206694 -0.00198613,0.000419605 -0.00393186,0.000637178 -0.00586204,0.000615421 -0.00113138,0 -0.002126,-0.000593664 -0.00301805,-0.0017468 -0.000913807,-0.00115314 -0.00161004,-0.00286264 -0.00214776,-0.0050881 -0.000515959,-0.00222546 -0.000773938,-0.00496688 -0.000792588,-0.00818696 0,-0.00210424 0.000118111,-0.00437011 0.00039474,-0.00681625 0.000279737,-0.00242439 0.000717991,-0.00488607 0.00135206,-0.00737262 0.000615421,-0.00248344 0.00142977,-0.00486742 0.00246479,-0.00713329 0.00103192,-0.00228452 0.00230627,-0.00431105 0.00381374,-0.00609826 0.00153234,-0.00179032 0.00331954,-0.00322008 0.00536784,-0.00425511 0.00206384,-0.00103192 0.00442917,-0.00156963 0.00711153,-0.00158828 0.00218816,1.86491e-005 0.00415254,0.000379199 0.00586204,0.00109408 0.00172815,0.000693126 0.00326049,0.00154788 0.0046312,0.00260155l0.00584028 -0.0076306c-0.000991511,-0.000972862 -0.00228452,-0.00190843 -0.00385415,-0.00278183 -0.00156963,-0.000895158 -0.00335684,-0.00161004 -0.00540514,-0.00218506 -0.00204519,-0.000556365 -0.00429241,-0.000854751 -0.00671679,-0.0008734 -0.00423024,1.86491e-005 -0.00806574,0.000792588 -0.0115438,0.00232492 -0.0034563,0.00152923 -0.00653652,0.00367388 -0.00920023,0.0064557 -0.00266372,0.00276318 -0.00490783,0.00602367 -0.00673544,0.0097566 -0.00183072,0.00373604 -0.00320143,0.00782952 -0.00413389,0.0122804 -0.000935564,0.00445092 -0.00141112,0.00912253 -0.00141112,0.0140117 -1.86491e-005,0.00298075 0.000257979,0.00586204 0.000832994,0.00864387 0.000578123,0.00278183 0.00149193,0.00530567 0.00278183,0.00753114 0.00129301,0.00222546 0.00302116,0.00399402 0.00518756,0.00530567 0.00216641,0.00131165 0.00483012,0.00196748 0.0080098,0.00200478zm0.0381499 -0.00142977l0.0118049 0 0.00476796 -0.0454261c0.000615421,-0.000376091 0.00153234,-0.000972862 0.00272277,-0.0017468 0.00119354,-0.000795696 0.00256425,-0.0016691 0.00407483,-0.00264507 0.00152923,-0.000954213 0.00309886,-0.00188667 0.00469025,-0.00276007 0.00160693,-0.000895158 0.00311751,-0.0016318 0.00455038,-0.00220681 0.00142977,-0.000575014 0.00264196,-0.0008734 0.00363658,-0.000895158 0.0017468,-1.86491e-005 0.00297764,0.000298386 0.00367388,0.000975971 0.000696234,0.000655827 0.00103503,0.00180586 0.00103503,0.0034159 -2.17573e-005,0.00162869 -0.000180275,0.00385726 -0.000537716,0.00669814l-0.00488918 0.04459 0.0116868 0 0.00500729 -0.046974c0.000416497,-0.00353712 0.000575014,-0.00658003 0.000515959,-0.00908212 -5.90555e-005,-0.0025052 -0.000478661,-0.00455038 -0.0012526,-0.00614178 -0.000773938,-0.00156963 -0.00202654,-0.00274142 -0.00377645,-0.00347495 -0.0017468,-0.00073664 -0.00409348,-0.00109408 -0.00705247,-0.00109408 -0.00218506,4.04064e-005 -0.00439187,0.000456903 -0.00661733,0.00127125 -0.00220681,0.000814345 -0.00435146,0.00182761 -0.00639976,0.00303981 -0.00206694,0.00123395 -0.00395361,0.00246479 -0.00566312,0.00373604 -0.0017095,0.0012526 -0.00315792,0.00234668 -0.0043297,0.00327914l0.00357441 -0.0345755 -0.0116837 0 -0.00953902 0.0900162zm0.0665276 0l0.0116837 0 0.0067976 -0.0650979 -0.0116837 0 -0.0067976 0.0650979zm0.0137133 -0.0764241l0.0101327 -0.00894225 -0.00822737 -0.00882414 -0.0100146 0.00882414 0.00810926 0.00894225zm0.0185994 0.0764241l0.0116837 0 0.00488918 -0.0454261c0.000596772,-0.000376091 0.00148882,-0.000972862 0.00268236,-0.0017468 0.00117179,-0.000795696 0.0025425,-0.0016691 0.00405308,-0.00264507 0.00152923,-0.000954213 0.00310197,-0.00188667 0.00469025,-0.00276007 0.00161004,-0.000895158 0.00312062,-0.0016318 0.00453174,-0.00220681 0.00142977,-0.000575014 0.00262331,-0.0008734 0.00359617,-0.000895158 0.00178721,-1.86491e-005 0.00303981,0.000298386 0.00373604,0.000975971 0.000693126,0.000655827 0.00103192,0.00180586 0.00103192,0.0034159 0,0.00162869 -0.000158518,0.00385726 -0.000475553,0.00669814l-0.00488918 0.04459 0.0116837 0 0.00500729 -0.046974c0.000419605,-0.00353712 0.000578123,-0.00658003 0.000515959,-0.00908212 -7.77047e-005,-0.0025052 -0.000494202,-0.00455038 -0.0012899,-0.00614178 -0.000773938,-0.00156963 -0.00204829,-0.00274142 -0.00377645,-0.00347495 -0.0017468,-0.00073664 -0.00407172,-0.00109408 -0.00701518,-0.00109408 -0.00218506,4.04064e-005 -0.00438876,0.000456903 -0.00661422,0.00127125 -0.00220681,0.000814345 -0.00435457,0.00182761 -0.00639976,0.00303981 -0.00206694,0.00123395 -0.00395361,0.00246479 -0.00566312,0.00373604 -0.0017095,0.0012526 -0.00316103,0.00234668 -0.00433281,0.00327914l0.000954213 -0.00965714 -0.0116837 0 -0.00691571 0.0650979zm0.0813102 0.00142977c0.00367698,-1.86491e-005 0.00707423,-0.000435146 0.0101544,-0.00121219 0.00310197,-0.000792588 0.00600191,-0.00182761 0.00870603,-0.00309886 0.00270101,-0.00127125 0.00532432,-0.00266372 0.00784817,-0.00415254l-0.00417429 -0.00834548c-0.00238398,0.0012899 -0.00474931,0.00242439 -0.00707423,0.0034159 -0.00232492,0.00101327 -0.00458768,0.00180896 -0.0067945,0.00238398 -0.00218506,0.000578123 -0.00429241,0.000854751 -0.00627854,0.000876509 -0.00248655,0 -0.004252,-0.00119354 -0.00534608,-0.00355887 -0.00107232,-0.00238398 -0.00159139,-0.0059211 -0.00156963,-0.01063l0 -0.00274142 0.019911 -0.00715505c0.00234357,-0.000792588 0.00462809,-0.00172815 0.00681625,-0.00280048 0.00218506,-0.00107232 0.00415254,-0.00234668 0.0059211,-0.0037951 0.0017468,-0.00147017 0.00313927,-0.00317967 0.00417119,-0.00512851 0.00101327,-0.00194572 0.00155099,-0.00421159 0.00156963,-0.00675409 0,-0.00206694 -0.000335684,-0.00405618 -0.00101327,-0.0059242 -0.000693126,-0.00186491 -0.0017468,-0.00351536 -0.00317967,-0.00496688 -0.00144841,-0.00147017 -0.00329779,-0.00260155 -0.00556365,-0.00343765 -0.00226276,-0.000854751 -0.00496688,-0.00127125 -0.0081248,-0.0012899 -0.00433281,1.86491e-005 -0.00824913,0.000814345 -0.0117241,0.00236222 -0.00345941,0.00155099 -0.00649922,0.00371739 -0.00910077,0.00648057 -0.00260466,0.00276007 -0.00478972,0.0059988 -0.00651787,0.00967578 -0.00173126,0.00367698 -0.00304291,0.00764925 -0.00389456,0.0119417 -0.000876509,0.00427376 -0.00131165,0.00870603 -0.00131165,0.0132937 -2.17573e-005,0.00310197 0.000217573,0.00610137 0.000714883,0.00902307 0.00049731,0.00289994 0.00134895,0.00552325 0.00256115,0.00786993 0.00121219,0.00232492 0.00290305,0.00419294 0.00506945,0.00556365 0.00216641,0.00137071 0.00490783,0.00206694 0.00822426,0.00210424zm-0.0034563 -0.0367201c0.000537716,-0.00288129 0.00129301,-0.00564447 0.00228452,-0.00828642 0.000975971,-0.00262331 0.00224722,-0.00496999 0.00377645,-0.00703383 0.00151058,-0.00206694 0.00335684,-0.00369874 0.0055046,-0.00491093 0.00214465,-0.00119044 0.00464985,-0.00180586 0.00750938,-0.00182761 0.00117489,0 0.00228763,0.000220681 0.0033413,0.000677585 0.00103192,0.000435146 0.00188667,0.00117179 0.00256115,0.00214465 0.000655827,0.00099462 0.00099462,0.00226587 0.00101327,0.00385415 0,0.00169085 -0.000733532,0.00326049 -0.00216641,0.00473066 -0.00142977,0.00145152 -0.00347495,0.00270101 -0.00617907,0.00373604l-0.0176452 0.00691571z" />
            <path id="_312257952" class="fil1" d="M1.13944 0.171491l-0.127411 0 -0.020054 0.0361265 -0.0735086 0 0.127899 -0.203822 -0.00169396 -0.00305535 0.0036086 0 0.0549092 0 0.0036086 0 -0.00169396 0.00305535 0.127899 0.203822 -0.0735086 0 -0.020054 -0.0361265zm-0.104615 -0.0410778l0.0818199 0 -0.0409099 -0.0737044 -0.0409099 0.0737044z" />
            <polygon id="_304075864" class="fil1" points="-0,0.00105057 0.0658221,0.00105057 0.0658221,0.205451 -0,0.205451 " />
            <polygon id="_304075024" class="fil1" points="0.0658221,0.103251 0.187713,0 0.279768,0 0.153069,0.100469 0.281748,0.206875 0.186721,0.206875 " />
            <polygon id="_304063880" class="fil1" points="0.636724,0.00105057 0.702546,0.00105057 0.702546,0.205451 0.636724,0.205451 " />
            <polygon id="_304062928" class="fil1" points="0.702546,0.103251 0.824437,0 0.916492,0 0.78979,0.100469 0.918469,0.206875 0.823446,0.206875 " />
            <path id="_312256608" class="fil1" d="M0.454187 0.15701l-0.0153544 0 -0.0323438 0c-0.0169738,-6.21637e-006 -0.0324526,-0.0128803 -0.0307897,-0.0378515l0 -0.0389207 0 -0.0791873 -0.0653279 0 0 0.149398 0 0c0.00281913,0.0311223 0.0290553,0.0585831 0.0602895,0.0610044l0.151698 0c0.031374,-0.00243371 0.0574828,-0.0300282 0.0602895,-0.0610044l0 0 0 -0.149398 -0.0653279 0 0 0.0791873 0 0.0389207c0.00166288,0.0249712 -0.0138159,0.0378453 -0.0307928,0.0378515l-0.0323407 0z" />
            <path id="_312255936" class="fil0" d="M1.26714 0.23124c3.10819e-005,0.00275074 0.000422713,0.00522175 0.00119354,0.00742235 0.000767722,0.00219438 0.00182761,0.00412456 0.00316103,0.00577812 0.00134895,0.00164423 0.00289683,0.00302116 0.00464363,0.00412456 0.00174991,0.00109719 0.00362725,0.00192397 0.00561649,0.00247101 0.00199856,0.000537716 0.00402821,0.000808128 0.00609515,0.000798804 0.00173126,0 0.00344076,-0.000183383 0.00514405,-0.000556365 0.0017095,-0.000376091 0.00333508,-0.000963538 0.00487364,-0.00176234 0.00154788,-0.000786371 0.00295278,-0.00181518 0.00422092,-0.00306467 0.00125882,-0.00124949 0.0023156,-0.00275074 0.00317346,-0.00450065 0.000845427,-0.00174058 0.00143287,-0.0037578 0.00174058,-0.0060361 -0.00174991,0 -0.00344387,0 -0.00509743,0 -0.00165356,0 -0.00333508,0 -0.00505702,0 -0.000372982,0.0014422 -0.000988403,0.00264196 -0.00184626,0.00361482 -0.000854751,0.00096043 -0.00189289,0.00169085 -0.0031144,0.00217262 -0.00122152,0.000487985 -0.00256736,0.000730424 -0.00403753,0.000730424 -0.00152923,-2.79737e-005 -0.00291237,-0.000335684 -0.00414321,-0.000932456 -0.00124017,-0.000606096 -0.00228763,-0.00142355 -0.00317346,-0.00245236 -0.0008734,-0.00103813 -0.00154788,-0.00222235 -0.00200789,-0.00355577 -0.000472444,-0.00133652 -0.000711775,-0.00275074 -0.000711775,-0.004252 9.32456e-006,-0.00224722 0.000432038,-0.00420848 0.00125882,-0.00589312 0.000826778,-0.00168153 0.00197991,-0.00299008 0.00348117,-0.00392253 0.00149815,-0.00094178 0.0032667,-0.00142355 0.00529635,-0.00143287 0.00217262,-9.32456e-006 0.00400024,0.000472444 0.00548906,0.00143287 0.00150125,0.000963538 0.00260466,0.00247101 0.00333508,0.00450998 0.00116557,0 0.00230938,0 0.0034159,0 0.00110341,0 0.00221925,0 0.00332576,0 0.00110651,0 0.00223789,0 0.00341279,0 -0.00032636,-0.00215397 -0.000913807,-0.00406551 -0.00176856,-0.00574082 -0.000857859,-0.0016722 -0.00191464,-0.0031144 -0.00317346,-0.0043266 -0.00125882,-0.00120908 -0.00266372,-0.0022006 -0.00419294,-0.00298075 -0.00152612,-0.000786371 -0.00313305,-0.00136449 -0.00480526,-0.00173748 -0.0016722,-0.000376091 -0.00335684,-0.000559474 -0.00503837,-0.000559474 -0.00206694,0 -0.00409659,0.000279737 -0.00609515,0.000826778 -0.00198924,0.000559474 -0.00386658,0.00138625 -0.00561649,0.00248966 -0.0017468,0.00110651 -0.00329468,0.00248033 -0.00464363,0.00413389 -0.00133341,0.00165356 -0.0023933,0.00357752 -0.00316103,0.00577812 -0.00077083,0.0022037 -0.00116246,0.00467471 -0.00119354,0.00742235z" />
            <path id="_312255432" class="fil2 str0" d="M1.28771 0.196409c-0.018991,0 -0.034389,0.015398 -0.034389,0.034389 0,0.0189879 0.015398,0.0343859 0.034389,0.0343859 0.0189879,0 0.0343859,-0.015398 0.0343859,-0.0343859 0,-0.018991 -0.015398,-0.034389 -0.0343859,-0.034389z" />
        </g>
    </g>
</svg>