<?xml version="1.0" encoding="utf-8"?>
<!-- Generator: Adobe Illustrator 19.2.1, SVG Export Plug-In . SVG Version: 6.00 Build 0)  -->
<svg version="1.1" id="Слой_1" xmlns="http://www.w3.org/2000/svg" xmlns:xlink="http://www.w3.org/1999/xlink" x="0px" y="0px" viewBox="0 0 58.1 115.4" style="enable-background:new 0 0 58.1 115.4;" xml:space="preserve">
    <style type="text/css">
    .st0 {
        fill: #A4D0D5;
    }

    .st1 {
        fill: #C34844;
    }

    .st2 {
        fill: #EF7F1A;
    }

    .st3 {
        fill: #F3D7B6;
    }

    .st4 {
        fill: #FEFEFE;
    }

    .st5 {
        fill: #543027;
    }

    .st6 {
        fill: #8F5D3C;
    }

    .st7 {
        fill: #74473D;
    }

    .st8 {
        fill: #8A4134;
    }

    .st9 {
        fill: #FBD4BB;
    }
    </style>
    <g id="Layer_x0020_1">
        <g id="_383541072">
            <path id="_511018464" class="st0" d="M20.8,39.5L20.8,39.5l-20.3,0c-0.2,0-0.5,0.2-0.5,0.5v0.3v0V44v0v0.3c0,0.2,0.2,0.5,0.5,0.5
			h0.2h0h20.2h0h36.7c0.3,0,0.6-0.3,0.6-0.7v-3.8c0-0.4-0.3-0.7-0.6-0.7C57.5,39.5,20.8,39.5,20.8,39.5z" />
            <path id="_511028152" class="st0" d="M48.6,35.1L5.6,38.5c-0.3,0-0.6,0.3-0.6,0.6v0.3h48.1v-3.7c0-0.5-0.2-0.9-1.2-0.9
			C50.7,34.9,49,35.1,48.6,35.1z" />
            <path id="_510964816" class="st0" d="M21.2,37.3L24,37L5.6,38.5c-0.3,0-0.6,0.3-0.6,0.6v0.3h15v-0.6
			C20.1,38.2,20.6,37.3,21.2,37.3z" />
            <path id="_510975176" class="st0" d="M27.1,10.9C28,8.3,27.6,3.2,25.3,0c2.5,1.3,8.4,4.3,9.8,10.9c1.8,8.6-7.9,14.8-7.9,20.8
			C17.8,18.8,24.6,18.5,27.1,10.9z" />
            <path id="_510972376" class="st0" d="M36.7,21.2c0.9-1.1,1.8-3.7,1.3-5.7c1,1.1,3.2,3.8,2.6,7.3c-0.8,4.6-6.8,5.7-8,8.6
			C30.6,23.3,34,24.4,36.7,21.2z" />
            <polygon id="_510966944" class="st1" points="48.3,73.8 9.9,73.8 8.7,61.2 49.4,61.2 		" />
            <polygon id="_510990072" class="st2" points="45.8,98.9 12.4,98.9 11.1,86.3 47,86.3 		" />
            <polygon id="_511024512" class="st3" points="47,86.3 11.1,86.3 9.9,73.8 48.3,73.8 		" />
            <polygon id="_510967896" class="st4" points="49.4,61.2 8.7,61.2 7.5,48.7 50.6,48.7 		" />
            <polygon id="_514431336" class="st5" points="44.5,111.5 13.6,111.5 12.4,98.9 45.8,98.9 		" />
            <polygon id="_514476304" class="st6" points="16.4,111.5 25.8,111.5 25.8,98.9 15.3,98.9 		" />
            <polygon id="_514472272" class="st7" points="25.8,111.5 37.5,111.5 38,98.9 25.8,98.9 		" />
            <circle id="_514452784" class="st4" cx="20.4" cy="92.9" r="0.9" />
            <circle id="_514434136" class="st4" cx="23.7" cy="96.7" r="0.9" />
            <circle id="_514464992" class="st4" cx="27.2" cy="92.5" r="0.9" />
            <circle id="_514480224" class="st4" cx="30.9" cy="95.1" r="0.9" />
            <circle id="_514442256" class="st4" cx="43.6" cy="93.6" r="0.9" />
            <circle id="_514476696" class="st4" cx="38.7" cy="96.9" r="0.9" />
            <circle id="_514429208" class="st4" cx="34.9" cy="93" r="0.9" />
            <circle id="_514434640" class="st4" cx="24.5" cy="89" r="0.9" />
            <circle id="_382644352" class="st4" cx="32.1" cy="88.8" r="0.9" />
            <circle id="_382655552" class="st4" cx="14.6" cy="90" r="0.9" />
            <circle id="_382651072" class="st4" cx="15.9" cy="96.3" r="0.9" />
            <circle id="_382659920" class="st4" cx="39.7" cy="89.7" r="0.9" />
            <path id="_382699064" class="st4" d="M14.6,82.1c-0.4,0-0.8-0.3-0.9-0.7L13,77.7c-0.1-0.5,0.2-1,0.7-1.1l3.6-0.7
			c0.1,0,0.1,0,0.2,0c0.4,0,0.8,0.3,0.9,0.7l0.7,3.6c0.1,0.5-0.2,1-0.7,1.1L14.8,82C14.7,82.1,14.6,82.1,14.6,82.1z" />
            <path id="_382676888" class="st4" d="M21.7,84.9c-0.2,0-0.4-0.1-0.5-0.2l-3-2.2c-0.4-0.3-0.5-0.9-0.2-1.3l2.2-3
			c0.2-0.2,0.5-0.4,0.7-0.4c0.2,0,0.4,0.1,0.5,0.2l3,2.2c0.2,0.1,0.3,0.3,0.3,0.4l0,0.6c0,0.1-0.1,0.2-0.1,0.2l-2.2,3
			C22.3,84.8,22,84.9,21.7,84.9z" />
            <path id="_382662272" class="st4" d="M27.3,81.6c-0.3,0-0.5-0.1-0.7-0.4l-2.3-2.9c-0.3-0.4-0.2-1,0.2-1.3l2.9-2.3
			c0,0,0.1-0.1,0.2-0.1c0.1-0.1,0.3-0.1,0.4-0.1c0.3,0,0.5,0.1,0.7,0.4l2.3,2.9c0.3,0.4,0.2,1-0.2,1.3l-2.9,2.3
			c-0.1,0.1-0.2,0.1-0.3,0.2C27.4,81.6,27.4,81.6,27.3,81.6z" />
            <path id="_382650960" class="st4" d="M34.1,85.2c-0.4,0-0.8-0.3-0.9-0.7l-0.7-3.6c-0.1-0.5,0.2-1,0.7-1.1l3.6-0.7
			c0.1,0,0.1,0,0.2,0c0.4,0,0.8,0.3,0.9,0.7l0.7,3.6c0.1,0.5-0.2,1-0.7,1.1l-3.6,0.7C34.2,85.2,34.1,85.2,34.1,85.2z" />
            <path id="_382668936" class="st4" d="M41.8,82.9c-0.3,0-0.5-0.1-0.7-0.4l-2.3-2.9c-0.3-0.4-0.2-1,0.2-1.3l2.9-2.3
			c0,0,0.1-0.1,0.2-0.1c0.1-0.1,0.3-0.1,0.4-0.1c0.3,0,0.5,0.1,0.7,0.4l2.3,2.9c0.3,0.4,0.2,1-0.2,1.3l-2.9,2.3
			c-0.1,0.1-0.2,0.1-0.3,0.2C42,82.9,41.9,82.9,41.8,82.9z" />
            <path id="_383562016" class="st8" d="M40.4,73.8h7.9l0.3-2.9c-0.2-0.2-0.4-0.3-0.6-0.5c-2.1-1.6-4.7-2.6-7.5-2.6
			c-2,0-3.8,0.5-5.6,1.3l-0.1,0c-2-1-4.2-1.5-6.4-1.4c-1.7,0.1-3.4,0.6-4.9,1.4l0,0c-1.7-0.9-3.6-1.4-5.7-1.4c-0.2,0-0.5,0-0.7,0
			l0,0c-2.5,0.2-5.5,1.2-7.3,3l0.3,2.9h7.7h0.1h3.4h4.6h3.3H29h3.4H37L40.4,73.8C40.3,73.8,40.4,73.8,40.4,73.8z" />
            <path id="_383575568" class="st9" d="M8.7,61.2c0,0,0.9-5.8,15.9-7.6c0,0,4.1-0.4,1.1-3c0,0,16.3-2.2,23.6,10.6H8.7z" />
            <path id="_383557256" class="st0" d="M46.8,115.4H24.5H11.4c-0.7,0-1.4-0.6-1.4-1.3L3.2,44.8h15h36.6L48.2,114
			C48.1,114.8,47.5,115.4,46.8,115.4z M44.5,111.5l6.1-62.8H7.5l6.1,62.8H44.5z" />
        </g>
    </g>
</svg>