<?xml version="1.0" encoding="utf-8"?>
<!-- Generator: Adobe Illustrator 19.2.1, SVG Export Plug-In . SVG Version: 6.00 Build 0)  -->
<svg version="1.1" id="Слой_1" xmlns="http://www.w3.org/2000/svg" xmlns:xlink="http://www.w3.org/1999/xlink" x="0px" y="0px"
	 viewBox="0 0 62.7 65.3" style="enable-background:new 0 0 62.7 65.3;" xml:space="preserve">
<style type="text/css">
	.st0{fill:#FFCC00;}
	.st1{fill:#D0730E;}
	.st2{fill-rule:evenodd;clip-rule:evenodd;fill:#F18E00;}
	.st3{fill-rule:evenodd;clip-rule:evenodd;fill:#707173;}
	.st4{fill-rule:evenodd;clip-rule:evenodd;fill:#FFFFFF;}
	.st5{fill-rule:evenodd;clip-rule:evenodd;}
	.st6{fill-rule:evenodd;clip-rule:evenodd;fill:#B24C1F;}
	.st7{fill:#A9D7D9;}
	.st8{fill-rule:evenodd;clip-rule:evenodd;fill:#A9D7D9;}
	.st9{fill-rule:evenodd;clip-rule:evenodd;fill:#492822;}
	.st10{fill-rule:evenodd;clip-rule:evenodd;fill:#84543B;}
	.st11{fill-rule:evenodd;clip-rule:evenodd;fill:#6A3F38;}
	.st12{fill-rule:evenodd;clip-rule:evenodd;fill:#E87C3A;}
	.st13{fill-rule:evenodd;clip-rule:evenodd;fill:#F3D5B9;}
	.st14{fill:#FFFFFF;}
	.st15{fill-rule:evenodd;clip-rule:evenodd;fill:#BA4E47;}
	.st16{fill:#813D33;}
	.st17{fill:#F3D5B9;}
	.st18{fill-rule:evenodd;clip-rule:evenodd;fill:#9C9E9F;}
</style>
<g>
	<polygon class="st0" points="32.5,3 36.5,21.2 40.6,20.3 36.8,3 	"/>
	<polygon class="st0" points="42.5,3 46.4,21 48.5,20.5 44.7,3 	"/>
	<polygon class="st1" points="36,3 39.9,21.2 44.1,20.3 40.3,3 	"/>
	<path d="M45.1,3h-0.6c-6.4,11.1-9.9,23.1-1.9,36.2l0.5-0.3C35.2,25.9,38.6,14.2,45.1,3z"/>
	<path d="M40.9,3h-1.6c-6.8,11.3-9.8,24.1,3.1,37.9l1-1C30.8,26.5,33.9,14.2,40.9,3z"/>
	<path class="st2" d="M35.6,18.7h12.8c0.6,0,1.2,0.3,1.2,0.6v9c0,0.3-0.5,0.6-1.2,0.6H35.6c-0.6,0-1.2-0.3-1.2-0.6v-9
		C34.4,19,34.9,18.7,35.6,18.7"/>
	<rect x="34.7" y="24.7" class="st1" width="15.2" height="0.6"/>
	<polygon class="st3" points="18.2,42.8 47.3,42.7 47.3,46.1 18.2,46.2 	"/>
	<polygon class="st4" points="8,43.5 22.9,43.5 23.4,38.6 7.6,38.6 	"/>
	<rect x="43.6" y="30.1" class="st5" width="2.7" height="8.4"/>
	<rect x="42" y="28.8" class="st5" width="5.8" height="2.4"/>
	<polygon class="st6" points="49.5,18.9 49.6,28.8 53,26.4 53,19.5 	"/>
	<polygon class="st5" points="47.3,47.3 47.3,53.1 55.5,50.4 55.6,45.9 50,47.2 	"/>
	<path class="st4" d="M21.2,50.5c-0.2,0-0.3,0.2-0.3,0.3c0,0.2,0.2,0.3,0.3,0.3c0.2,0,0.3-0.2,0.3-0.3
		C21.5,50.6,21.4,50.5,21.2,50.5"/>
	<path class="st4" d="M19.3,51.8c-0.2,0-0.3,0.2-0.3,0.3c0,0.2,0.2,0.3,0.3,0.3c0.2,0,0.3-0.2,0.3-0.3
		C19.6,51.9,19.5,51.8,19.3,51.8"/>
	<path class="st4" d="M19.6,48.9c-0.2,0-0.3,0.2-0.3,0.3c0,0.2,0.2,0.3,0.3,0.3c0.2,0,0.3-0.2,0.3-0.3C20,49.1,19.8,48.9,19.6,48.9"
		/>
	<path class="st7" d="M18.6,29.3l-1.1-0.1l7.2,0.6c0.1,0,0.2,0.1,0.2,0.2v0.1h-5.9V30C19.1,29.7,18.8,29.4,18.6,29.3L18.6,29.3z"/>
	<path class="st8" d="M17,14.8c-1,0.5-3.3,1.7-3.8,4.2c-0.7,3.4,3.1,5.8,3.1,8.1C21.2,20.4,13.4,20,17,14.8L17,14.8z"/>
	<path class="st8" d="M12,20.8c-0.4,0.5-1.3,1.5-1,2.9c0.3,1.8,2.7,2.2,3.1,3.4C15.2,22.7,11.3,24.1,12,20.8L12,20.8z"/>
	<polygon class="st4" points="8,43.6 23,43.6 23.5,38.7 7.6,38.7 	"/>
	<polygon class="st4" points="9,53.4 22.1,53.4 22.5,48.5 8.6,48.5 	"/>
	<polygon class="st4" points="8.6,48.5 22.5,48.5 23,43.6 8,43.6 	"/>
	<polygon class="st4" points="7.6,38.7 23.5,38.7 24,33.8 7.1,33.8 	"/>
	<polygon class="st4" points="9.5,58.3 21.6,58.3 22.1,53.4 9,53.4 	"/>
	<polygon class="st9" points="21.9,58.3 9,58.3 8.5,53.1 22.4,53.1 	"/>
	<polygon class="st10" points="10.6,58.3 14.5,58.3 14.5,53.1 10.1,53.1 	"/>
	<polygon class="st11" points="14.5,58.3 19.3,58.3 19.6,53.1 14.5,53.1 	"/>
	<polygon class="st12" points="22.5,53.1 8.7,53.1 8.2,48.1 22.9,48.1 	"/>
	<path class="st4" d="M12.1,50.4c-0.2,0-0.3,0.1-0.3,0.3s0.2,0.3,0.3,0.3c0.2,0,0.4-0.1,0.4-0.3S12.3,50.4,12.1,50.4L12.1,50.4z"/>
	<path class="st4" d="M13.4,51.9c-0.2,0-0.3,0.1-0.3,0.3s0.1,0.3,0.3,0.3s0.3-0.1,0.3-0.3S13.6,51.9,13.4,51.9L13.4,51.9z"/>
	<path class="st4" d="M14.8,50.2c-0.2,0-0.3,0.1-0.3,0.3s0.1,0.3,0.3,0.3s0.4-0.1,0.4-0.3S15,50.2,14.8,50.2L14.8,50.2z"/>
	<path class="st4" d="M16.3,51.2c-0.2,0-0.4,0.1-0.4,0.3s0.2,0.4,0.4,0.4s0.3-0.2,0.3-0.4S16.5,51.2,16.3,51.2L16.3,51.2z"/>
	<path class="st4" d="M21.3,50.6c-0.2,0-0.3,0.1-0.3,0.3c0,0.2,0.1,0.3,0.3,0.3s0.4-0.1,0.4-0.3C21.7,50.8,21.5,50.6,21.3,50.6
		L21.3,50.6z"/>
	<path class="st4" d="M19.3,51.9c-0.2,0-0.3,0.2-0.3,0.4c0,0.2,0.2,0.3,0.3,0.3c0.2,0,0.4-0.1,0.4-0.3
		C19.7,52.1,19.5,51.9,19.3,51.9L19.3,51.9z"/>
	<path class="st4" d="M17.8,50.4c-0.2,0-0.3,0.2-0.3,0.3c0,0.2,0.1,0.4,0.3,0.4s0.3-0.2,0.3-0.4C18.2,50.6,18,50.4,17.8,50.4
		L17.8,50.4z"/>
	<path class="st4" d="M13.7,48.8c-0.2,0-0.3,0.2-0.3,0.4c0,0.2,0.2,0.3,0.3,0.3c0.2,0,0.4-0.2,0.4-0.3C14.1,49,13.9,48.8,13.7,48.8
		L13.7,48.8z"/>
	<path class="st4" d="M16.7,48.7c-0.2,0-0.3,0.2-0.3,0.3c0,0.2,0.2,0.4,0.3,0.4c0.2,0,0.4-0.2,0.4-0.4
		C17.1,48.9,16.9,48.7,16.7,48.7L16.7,48.7z"/>
	<path class="st4" d="M9.8,49.2c-0.2,0-0.4,0.2-0.4,0.4c0,0.2,0.2,0.3,0.4,0.3s0.3-0.2,0.3-0.3C10.1,49.4,10,49.2,9.8,49.2L9.8,49.2
		z"/>
	<path class="st4" d="M10.3,51.7c-0.2,0-0.4,0.2-0.4,0.4c0,0.2,0.2,0.3,0.4,0.3c0.2,0,0.3-0.2,0.3-0.3
		C10.7,51.9,10.5,51.7,10.3,51.7L10.3,51.7z"/>
	<path class="st4" d="M19.7,49.1c-0.2,0-0.4,0.2-0.4,0.4s0.2,0.3,0.4,0.3c0.2,0,0.3-0.1,0.3-0.3S19.9,49.1,19.7,49.1L19.7,49.1z"/>
	<polygon class="st13" points="22.9,48.1 7.9,48.1 7.4,43.2 23.4,43.2 	"/>
	<path class="st14" d="M9.8,46.4c-0.2,0-0.3-0.1-0.3-0.3l-0.3-1.4c0-0.2,0.1-0.4,0.3-0.4l1.4-0.3c0,0,0,0,0.1,0
		c0.2,0,0.3,0.1,0.3,0.3l0.3,1.4c0,0.2-0.1,0.4-0.3,0.4L9.8,46.4C9.9,46.4,9.9,46.4,9.8,46.4L9.8,46.4z"/>
	<path class="st14" d="M12.6,47.6c-0.1,0-0.1,0-0.2-0.1l-1.2-0.9c-0.1-0.1-0.2-0.3-0.1-0.5L12,45c0.1-0.1,0.2-0.1,0.3-0.1
		c0.1,0,0.1,0,0.2,0.1l1.2,0.9c0.1,0,0.1,0.1,0.1,0.2v0.2c0,0,0,0.1-0.1,0.1l-0.9,1.2C12.9,47.5,12.7,47.6,12.6,47.6L12.6,47.6z"/>
	<path class="st14" d="M14.8,46.2c-0.1,0-0.2,0-0.3-0.1L13.6,45c-0.1-0.2-0.1-0.4,0.1-0.5l1.1-0.9c0,0,0.1,0,0.1-0.1
		c0.1,0,0.1,0,0.2,0c0.1,0,0.2,0.1,0.3,0.1l0.9,1.1c0.1,0.2,0.1,0.4-0.1,0.5L15,46.2C15,46.2,14.9,46.2,14.8,46.2
		C14.9,46.2,14.9,46.2,14.8,46.2L14.8,46.2z"/>
	<path class="st14" d="M17.5,47.6c-0.2,0-0.3-0.1-0.4-0.3l-0.3-1.4c-0.1-0.2,0.1-0.4,0.3-0.4l1.4-0.3c0,0,0.1,0,0.1,0
		c0.2,0,0.3,0.1,0.3,0.3l0.3,1.4c0,0.2-0.1,0.4-0.3,0.4L17.5,47.6C17.5,47.6,17.5,47.6,17.5,47.6L17.5,47.6z"/>
	<path class="st14" d="M20.5,46.8c-0.1,0-0.2-0.1-0.3-0.1l-0.9-1.1c-0.1-0.1-0.1-0.4,0.1-0.5l1.1-0.9c0,0,0,0,0.1,0
		c0.1,0,0.1,0,0.2,0c0.1,0,0.2,0,0.3,0.1l0.9,1.1c0.1,0.2,0.1,0.4-0.1,0.5l-1.1,0.9C20.7,46.7,20.7,46.7,20.5,46.8
		C20.6,46.8,20.5,46.8,20.5,46.8L20.5,46.8z"/>
	<polygon class="st15" points="23.4,43.2 7.6,43.2 7.1,38.2 23.9,38.2 	"/>
	<path class="st16" d="M20,43.2h3.1l0.1-1.1c-0.1-0.1-0.1-0.1-0.2-0.2c-0.8-0.6-1.8-1-2.9-1c-0.8,0-1.5,0.2-2.2,0.5h0
		c-0.8-0.4-1.7-0.6-2.5-0.5c-0.7,0-1.4,0.2-1.9,0.5l0,0c-0.7-0.3-1.4-0.5-2.2-0.5c-0.1,0-0.2,0-0.3,0l0,0c-1,0.1-2.2,0.5-2.9,1.2
		L8,43.2h3.1h0h1.3h1.8h1.3h0h1.3h1.8H20L20,43.2z"/>
	<path class="st7" d="M8.6,59.8h8.7h5.1c0.3,0,0.5-0.2,0.5-0.5l2.6-27.1h1l0,0h0.1c0.1,0,0.2-0.1,0.2-0.2V32l0,0v-1.5l0,0v-0.1
		c0-0.1-0.1-0.2-0.2-0.2h-1.8v-0.1c0-0.1-0.1-0.2-0.2-0.2L7.9,28.5c-0.2,0-0.9-0.1-1.3-0.1c-0.4,0-0.5,0.1-0.5,0.3v1.4H4.4
		c-0.1,0-0.3,0.1-0.3,0.3V32c0,0.1,0.1,0.3,0.3,0.3h1l2.6,27.1C8.1,59.6,8.4,59.8,8.6,59.8L8.6,59.8z M9.5,58.3L7.1,33.8H24
		l-2.4,24.5H9.5z"/>
	<polygon class="st18" points="18.2,47 47.3,47 47.3,50.4 18.2,50.4 	"/>
	<polygon class="st3" points="18.2,49.8 47.3,49.8 47.3,53.1 18.2,53.2 	"/>
	<rect x="55.6" y="37.9" class="st6" width="3.9" height="9.7"/>
	<rect x="38" y="40.4" class="st6" width="17.6" height="7.3"/>
	<rect x="38" y="37.9" class="st2" width="17.6" height="2.5"/>
</g>
</svg>
