<?xml version="1.0" encoding="utf-8"?>
<!-- Generator: Adobe Illustrator 19.2.1, SVG Export Plug-In . SVG Version: 6.00 Build 0)  -->
<svg version="1.1" id="Слой_1" xmlns="http://www.w3.org/2000/svg" xmlns:xlink="http://www.w3.org/1999/xlink" x="0px" y="0px"
	 viewBox="0 0 62.7 65.3" style="enable-background:new 0 0 62.7 65.3;" xml:space="preserve">
<style type="text/css">
	.st0{fill:#FFCC00;}
	.st1{fill:#D0730E;}
	.st2{fill-rule:evenodd;clip-rule:evenodd;fill:#F18E00;}
	.st3{fill-rule:evenodd;clip-rule:evenodd;fill:#707173;}
	.st4{fill-rule:evenodd;clip-rule:evenodd;fill:#FFFFFF;}
	.st5{fill-rule:evenodd;clip-rule:evenodd;}
	.st6{fill-rule:evenodd;clip-rule:evenodd;fill:#B24C1F;}
	.st7{fill:#A9D7D9;}
	.st8{fill-rule:evenodd;clip-rule:evenodd;fill:#A9D7D9;}
	.st9{fill-rule:evenodd;clip-rule:evenodd;fill:#492822;}
	.st10{fill-rule:evenodd;clip-rule:evenodd;fill:#84543B;}
	.st11{fill-rule:evenodd;clip-rule:evenodd;fill:#6A3F38;}
	.st12{fill-rule:evenodd;clip-rule:evenodd;fill:#E87C3A;}
	.st13{fill-rule:evenodd;clip-rule:evenodd;fill:#F3D5B9;}
	.st14{fill:#FFFFFF;}
	.st15{fill-rule:evenodd;clip-rule:evenodd;fill:#BA4E47;}
	.st16{fill:#813D33;}
	.st17{fill:#F3D5B9;}
	.st18{fill-rule:evenodd;clip-rule:evenodd;fill:#9C9E9F;}
</style>
<g>
	<polygon class="st0" points="32.1,4.6 36,22.8 40.2,21.9 36.4,4.6 	"/>
	<polygon class="st0" points="42.1,4.6 46,22.6 48.1,22.1 44.3,4.6 	"/>
	<polygon class="st1" points="35.6,4.6 39.5,22.8 43.7,21.9 39.9,4.6 	"/>
	<path d="M44.7,4.6h-0.6c-6.4,11.1-9.9,23.1-1.9,36.2l0.5-0.3C34.8,27.5,38.2,15.8,44.7,4.6z"/>
	<path d="M40.5,4.6h-1.6C32.1,15.9,29,28.7,42,42.5l1-1C30.4,28.1,33.5,15.8,40.5,4.6z"/>
	<path class="st2" d="M35.2,20.3H48c0.6,0,1.2,0.3,1.2,0.6v9c0,0.3-0.5,0.6-1.2,0.6H35.2c-0.6,0-1.2-0.3-1.2-0.6v-9
		C34,20.6,34.5,20.3,35.2,20.3"/>
	<rect x="34.3" y="26.3" class="st1" width="15.2" height="0.6"/>
	<polygon class="st3" points="17.8,44.5 46.9,44.4 46.9,47.8 17.8,47.9 	"/>
	<polygon class="st4" points="7.6,45.1 22.5,45.1 22.9,40.3 7.2,40.3 	"/>
	<rect x="43.2" y="31.7" class="st5" width="2.7" height="8.4"/>
	<rect x="41.6" y="30.5" class="st5" width="5.8" height="2.4"/>
	<polygon class="st6" points="49.1,20.5 49.1,30.4 52.5,28.1 52.5,21.1 	"/>
	<polygon class="st5" points="46.9,49 46.9,54.8 55.1,52 55.2,47.6 49.5,48.9 	"/>
	<path class="st4" d="M20.8,52.1c-0.2,0-0.3,0.2-0.3,0.3c0,0.2,0.2,0.3,0.3,0.3c0.2,0,0.3-0.2,0.3-0.3C21.1,52.3,21,52.1,20.8,52.1"
		/>
	<path class="st4" d="M18.8,53.4c-0.2,0-0.3,0.2-0.3,0.3c0,0.2,0.2,0.3,0.3,0.3c0.2,0,0.3-0.2,0.3-0.3C19.2,53.5,19,53.4,18.8,53.4"
		/>
	<path class="st4" d="M19.2,50.6c-0.2,0-0.3,0.2-0.3,0.3c0,0.2,0.2,0.3,0.3,0.3c0.2,0,0.3-0.2,0.3-0.3
		C19.6,50.7,19.4,50.6,19.2,50.6"/>
	<path class="st7" d="M18.2,31l-1.1-0.1l7.2,0.6c0.1,0,0.2,0.1,0.2,0.2v0.1h-5.9v-0.2C18.6,31.3,18.4,31,18.2,31L18.2,31z"/>
	<path class="st8" d="M16.6,16.4c-1,0.5-3.3,1.7-3.8,4.2c-0.7,3.4,3.1,5.8,3.1,8.1C20.8,22,13,21.6,16.6,16.4L16.6,16.4z"/>
	<path class="st8" d="M11.6,22.5c-0.4,0.5-1.3,1.5-1,2.9c0.3,1.8,2.7,2.2,3.1,3.4C14.8,24.4,10.9,25.8,11.6,22.5L11.6,22.5z"/>
	<polygon class="st4" points="7.6,45.2 22.6,45.2 23.1,40.3 7.2,40.3 	"/>
	<polygon class="st4" points="8.6,55.1 21.6,55.1 22.1,50.2 8.1,50.2 	"/>
	<polygon class="st4" points="8.1,50.2 22.1,50.2 22.6,45.2 7.6,45.2 	"/>
	<polygon class="st4" points="7.2,40.3 23.1,40.3 23.6,35.4 6.7,35.4 	"/>
	<polygon class="st4" points="9.1,60 21.2,60 21.6,55.1 8.6,55.1 	"/>
	<polygon class="st9" points="21.5,60 8.6,60 8.1,54.7 22,54.7 	"/>
	<polygon class="st10" points="10.1,60 14.1,60 14.1,54.7 9.7,54.7 	"/>
	<polygon class="st11" points="14.1,60 18.9,60 19.2,54.7 14.1,54.7 	"/>
	<polygon class="st12" points="22.1,54.7 8.3,54.7 7.7,49.7 22.5,49.7 	"/>
	<path class="st4" d="M11.6,52c-0.2,0-0.3,0.1-0.3,0.3s0.2,0.3,0.3,0.3c0.2,0,0.4-0.1,0.4-0.3S11.8,52,11.6,52L11.6,52z"/>
	<path class="st4" d="M13,53.5c-0.2,0-0.3,0.1-0.3,0.3s0.1,0.3,0.3,0.3s0.3-0.1,0.3-0.3S13.2,53.5,13,53.5L13,53.5z"/>
	<path class="st4" d="M14.4,51.8c-0.2,0-0.3,0.1-0.3,0.3s0.1,0.3,0.3,0.3s0.4-0.1,0.4-0.3S14.6,51.8,14.4,51.8L14.4,51.8z"/>
	<path class="st4" d="M15.8,52.9c-0.2,0-0.4,0.1-0.4,0.3s0.2,0.4,0.4,0.4s0.3-0.2,0.3-0.4S16,52.9,15.8,52.9L15.8,52.9z"/>
	<path class="st4" d="M20.9,52.3c-0.2,0-0.3,0.1-0.3,0.3c0,0.2,0.1,0.3,0.3,0.3s0.4-0.1,0.4-0.3C21.2,52.4,21.1,52.3,20.9,52.3
		L20.9,52.3z"/>
	<path class="st4" d="M18.9,53.6c-0.2,0-0.3,0.2-0.3,0.4c0,0.2,0.2,0.3,0.3,0.3c0.2,0,0.4-0.1,0.4-0.3
		C19.3,53.7,19.1,53.6,18.9,53.6L18.9,53.6z"/>
	<path class="st4" d="M17.4,52c-0.2,0-0.3,0.2-0.3,0.3c0,0.2,0.1,0.4,0.3,0.4s0.3-0.2,0.3-0.4C17.8,52.2,17.6,52,17.4,52L17.4,52z"
		/>
	<path class="st4" d="M13.3,50.4c-0.2,0-0.3,0.2-0.3,0.4c0,0.2,0.2,0.3,0.3,0.3c0.2,0,0.4-0.2,0.4-0.3
		C13.6,50.6,13.5,50.4,13.3,50.4L13.3,50.4z"/>
	<path class="st4" d="M16.3,50.4c-0.2,0-0.3,0.2-0.3,0.3c0,0.2,0.2,0.4,0.3,0.4c0.2,0,0.4-0.2,0.4-0.4
		C16.7,50.5,16.5,50.4,16.3,50.4L16.3,50.4z"/>
	<path class="st4" d="M19.3,50.7c-0.2,0-0.4,0.2-0.4,0.4s0.2,0.3,0.4,0.3c0.2,0,0.3-0.1,0.3-0.3S19.5,50.7,19.3,50.7L19.3,50.7z"/>
	<polygon class="st13" points="22.5,49.7 7.5,49.7 7,44.8 23,44.8 	"/>
	<path class="st14" d="M9.4,48c-0.2,0-0.3-0.1-0.3-0.3l-0.3-1.4c0-0.2,0.1-0.4,0.3-0.4l1.4-0.3c0,0,0,0,0.1,0c0.2,0,0.3,0.1,0.3,0.3
		l0.3,1.4c0,0.2-0.1,0.4-0.3,0.4L9.4,48C9.5,48,9.5,48,9.4,48L9.4,48z"/>
	<path class="st14" d="M12.2,49.2c-0.1,0-0.1,0-0.2-0.1l-1.2-0.9c-0.1-0.1-0.2-0.3-0.1-0.5l0.8-1.2c0.1-0.1,0.2-0.1,0.3-0.1
		c0.1,0,0.1,0,0.2,0.1l1.2,0.9c0.1,0,0.1,0.1,0.1,0.2v0.2c0,0,0,0.1-0.1,0.1L12.5,49C12.4,49.1,12.3,49.2,12.2,49.2L12.2,49.2z"/>
	<path class="st14" d="M14.4,47.9c-0.1,0-0.2,0-0.3-0.1l-0.9-1.1c-0.1-0.2-0.1-0.4,0.1-0.5l1.1-0.9c0,0,0.1,0,0.1-0.1
		c0.1,0,0.1,0,0.2,0c0.1,0,0.2,0.1,0.3,0.1l0.9,1.1c0.1,0.2,0.1,0.4-0.1,0.5l-1.1,0.9C14.6,47.8,14.5,47.8,14.4,47.9
		C14.5,47.9,14.4,47.9,14.4,47.9L14.4,47.9z"/>
	<path class="st14" d="M17.1,49.3c-0.2,0-0.3-0.1-0.4-0.3l-0.3-1.4c-0.1-0.2,0.1-0.4,0.3-0.4l1.4-0.3c0,0,0.1,0,0.1,0
		c0.2,0,0.3,0.1,0.3,0.3l0.3,1.4c0,0.2-0.1,0.4-0.3,0.4L17.1,49.3C17.1,49.3,17.1,49.3,17.1,49.3L17.1,49.3z"/>
	<path class="st14" d="M20.1,48.4c-0.1,0-0.2-0.1-0.3-0.1l-0.9-1.1c-0.1-0.1-0.1-0.4,0.1-0.5l1.1-0.9c0,0,0,0,0.1,0
		c0.1,0,0.1,0,0.2,0c0.1,0,0.2,0,0.3,0.1l0.9,1.1c0.1,0.2,0.1,0.4-0.1,0.5l-1.1,0.9C20.3,48.3,20.2,48.4,20.1,48.4
		C20.2,48.4,20.1,48.4,20.1,48.4L20.1,48.4z"/>
	<polygon class="st15" points="23,44.8 7.1,44.8 6.7,39.9 23.5,39.9 	"/>
	<path class="st16" d="M19.6,44.8h3.1l0.1-1.1c-0.1-0.1-0.1-0.1-0.2-0.2c-0.8-0.6-1.8-1-2.9-1c-0.8,0-1.5,0.2-2.2,0.5h0
		c-0.8-0.4-1.7-0.6-2.5-0.5c-0.7,0-1.4,0.2-1.9,0.5l0,0c-0.7-0.3-1.4-0.5-2.2-0.5c-0.1,0-0.2,0-0.3,0l0,0c-1,0.1-2.2,0.5-2.9,1.2
		l0.1,1.1h3.1h0H12h1.8h1.3h0h1.3h1.8H19.6L19.6,44.8z"/>
	<path class="st17" d="M7.1,39.9c0,0,0.3-2.3,6.2-3c0,0,1.6-0.1,0.4-1.1c0,0,6.4-0.9,9.3,4.1H7.1z"/>
	<path class="st7" d="M8.2,61.5h8.7H22c0.3,0,0.5-0.2,0.5-0.5l2.6-27.1h1l0,0h0.1c0.1,0,0.2-0.1,0.2-0.2v-0.1l0,0v-1.5l0,0V32
		c0-0.1-0.1-0.2-0.2-0.2h-1.8v-0.1c0-0.1-0.1-0.2-0.2-0.2L7.5,30.1c-0.2,0-0.9-0.1-1.3-0.1c-0.4,0-0.5,0.1-0.5,0.3v1.4H4
		c-0.1,0-0.3,0.1-0.3,0.3v1.5c0,0.1,0.1,0.3,0.3,0.3h1L7.7,61C7.7,61.3,7.9,61.5,8.2,61.5L8.2,61.5z M9.1,60L6.7,35.4h16.8L21.2,60
		H9.1z"/>
	<polygon class="st18" points="17.8,48.7 46.9,48.6 46.9,52 17.8,52.1 	"/>
	<polygon class="st3" points="17.8,51.4 46.9,51.4 46.9,54.8 17.8,54.8 	"/>
	<rect x="55.1" y="39.6" class="st6" width="3.9" height="9.7"/>
	<rect x="37.6" y="42.1" class="st6" width="17.6" height="7.3"/>
	<rect x="37.6" y="39.6" class="st2" width="17.6" height="2.5"/>
</g>
</svg>
