<?xml version="1.0" encoding="utf-8"?>
<!-- Generator: Adobe Illustrator 19.2.1, SVG Export Plug-In . SVG Version: 6.00 Build 0)  -->
<svg version="1.1" id="Слой_1" xmlns="http://www.w3.org/2000/svg" xmlns:xlink="http://www.w3.org/1999/xlink" x="0px" y="0px"
	 viewBox="0 0 62.7 65.3" style="enable-background:new 0 0 62.7 65.3;" xml:space="preserve">
<style type="text/css">
	.st0{fill:#FFCC00;}
	.st1{fill:#D0730E;}
	.st2{fill-rule:evenodd;clip-rule:evenodd;fill:#F18E00;}
	.st3{fill-rule:evenodd;clip-rule:evenodd;fill:#707173;}
	.st4{fill-rule:evenodd;clip-rule:evenodd;fill:#FFFFFF;}
	.st5{fill-rule:evenodd;clip-rule:evenodd;}
	.st6{fill-rule:evenodd;clip-rule:evenodd;fill:#B24C1F;}
	.st7{fill:#A9D7D9;}
	.st8{fill-rule:evenodd;clip-rule:evenodd;fill:#A9D7D9;}
	.st9{fill-rule:evenodd;clip-rule:evenodd;fill:#492822;}
	.st10{fill-rule:evenodd;clip-rule:evenodd;fill:#84543B;}
	.st11{fill-rule:evenodd;clip-rule:evenodd;fill:#6A3F38;}
	.st12{fill-rule:evenodd;clip-rule:evenodd;fill:#E87C3A;}
	.st13{fill-rule:evenodd;clip-rule:evenodd;fill:#F3D5B9;}
	.st14{fill:#FFFFFF;}
	.st15{fill-rule:evenodd;clip-rule:evenodd;fill:#BA4E47;}
	.st16{fill:#813D33;}
	.st17{fill:#F3D5B9;}
	.st18{fill-rule:evenodd;clip-rule:evenodd;fill:#9C9E9F;}
</style>
<g>
	<polygon class="st0" points="30.8,3 34.8,21.2 38.9,20.3 35.1,3 	"/>
	<polygon class="st0" points="40.8,3 44.7,21 46.8,20.5 43,3 	"/>
	<polygon class="st1" points="34.3,3 38.2,21.2 42.4,20.3 38.6,3 	"/>
	<path d="M43.4,3h-0.6c-6.4,11.1-9.9,23.1-1.9,36.2l0.5-0.3C33.5,25.9,36.9,14.2,43.4,3z"/>
	<path d="M39.2,3h-1.6c-6.8,11.3-9.8,24.1,3.1,37.9l1-1C29.1,26.5,32.2,14.2,39.2,3z"/>
	<path class="st2" d="M33.9,18.7h12.8c0.6,0,1.2,0.3,1.2,0.6v9c0,0.3-0.5,0.6-1.2,0.6H33.9c-0.6,0-1.2-0.3-1.2-0.6v-9
		C32.7,19,33.2,18.7,33.9,18.7"/>
	<rect x="33" y="24.7" class="st1" width="15.2" height="0.6"/>
	<polygon class="st3" points="16.5,42.8 45.6,42.7 45.6,46.1 16.5,46.2 	"/>
	<polygon class="st4" points="6.3,43.5 21.2,43.5 21.7,38.6 5.9,38.6 	"/>
	<rect x="41.9" y="30.1" class="st5" width="2.7" height="8.4"/>
	<rect x="40.3" y="28.8" class="st5" width="5.8" height="2.4"/>
	<polygon class="st6" points="47.8,18.9 47.9,28.8 51.3,26.4 51.3,19.5 	"/>
	<polygon class="st5" points="45.6,47.3 45.6,53.1 53.8,50.4 53.9,45.9 48.3,47.2 	"/>
	<path class="st4" d="M19.5,50.5c-0.2,0-0.3,0.2-0.3,0.3c0,0.2,0.2,0.3,0.3,0.3c0.2,0,0.3-0.2,0.3-0.3
		C19.8,50.6,19.7,50.5,19.5,50.5"/>
	<path class="st4" d="M17.6,51.8c-0.2,0-0.3,0.2-0.3,0.3c0,0.2,0.2,0.3,0.3,0.3c0.2,0,0.3-0.2,0.3-0.3
		C17.9,51.9,17.8,51.8,17.6,51.8"/>
	<path class="st4" d="M17.9,48.9c-0.2,0-0.3,0.2-0.3,0.3c0,0.2,0.2,0.3,0.3,0.3c0.2,0,0.3-0.2,0.3-0.3
		C18.3,49.1,18.1,48.9,17.9,48.9"/>
	<path class="st7" d="M16.9,29.3l-1.1-0.1l7.2,0.6c0.1,0,0.2,0.1,0.2,0.2v0.1h-5.9V30C17.4,29.7,17.1,29.4,16.9,29.3L16.9,29.3z"/>
	<path class="st8" d="M15.3,14.8c-1,0.5-3.3,1.7-3.8,4.2c-0.7,3.4,3.1,5.8,3.1,8.1C19.5,20.4,11.7,20,15.3,14.8L15.3,14.8z"/>
	<path class="st8" d="M10.3,20.8c-0.4,0.5-1.3,1.5-1,2.9c0.3,1.8,2.7,2.2,3.1,3.4C13.5,22.7,9.6,24.1,10.3,20.8L10.3,20.8z"/>
	<polygon class="st4" points="6.3,43.6 21.3,43.6 21.8,38.7 5.9,38.7 	"/>
	<polygon class="st4" points="7.3,53.4 20.4,53.4 20.8,48.5 6.9,48.5 	"/>
	<polygon class="st4" points="6.9,48.5 20.8,48.5 21.3,43.6 6.3,43.6 	"/>
	<polygon class="st4" points="5.9,38.7 21.8,38.7 22.3,33.8 5.4,33.8 	"/>
	<polygon class="st4" points="7.8,58.3 19.9,58.3 20.4,53.4 7.3,53.4 	"/>
	<polygon class="st9" points="20.2,58.3 7.3,58.3 6.8,53.1 20.7,53.1 	"/>
	<polygon class="st10" points="8.9,58.3 12.8,58.3 12.8,53.1 8.4,53.1 	"/>
	<polygon class="st11" points="12.8,58.3 17.6,58.3 17.9,53.1 12.8,53.1 	"/>
	<path class="st4" d="M10.4,50.4c-0.2,0-0.3,0.1-0.3,0.3s0.2,0.3,0.3,0.3c0.2,0,0.4-0.1,0.4-0.3S10.6,50.4,10.4,50.4L10.4,50.4z"/>
	<path class="st4" d="M11.7,51.9c-0.2,0-0.3,0.1-0.3,0.3s0.1,0.3,0.3,0.3s0.3-0.1,0.3-0.3S11.9,51.9,11.7,51.9L11.7,51.9z"/>
	<path class="st4" d="M13.1,50.2c-0.2,0-0.3,0.1-0.3,0.3s0.1,0.3,0.3,0.3s0.4-0.1,0.4-0.3S13.3,50.2,13.1,50.2L13.1,50.2z"/>
	<path class="st4" d="M14.6,51.2c-0.2,0-0.4,0.1-0.4,0.3s0.2,0.4,0.4,0.4s0.3-0.2,0.3-0.4S14.8,51.2,14.6,51.2L14.6,51.2z"/>
	<path class="st4" d="M19.6,50.6c-0.2,0-0.3,0.1-0.3,0.3c0,0.2,0.1,0.3,0.3,0.3S20,51.2,20,51C20,50.8,19.8,50.6,19.6,50.6
		L19.6,50.6z"/>
	<path class="st4" d="M17.6,51.9c-0.2,0-0.3,0.2-0.3,0.4c0,0.2,0.2,0.3,0.3,0.3c0.2,0,0.4-0.1,0.4-0.3C18,52.1,17.8,51.9,17.6,51.9
		L17.6,51.9z"/>
	<path class="st4" d="M16.1,50.4c-0.2,0-0.3,0.2-0.3,0.3c0,0.2,0.1,0.4,0.3,0.4c0.2,0,0.3-0.2,0.3-0.4
		C16.5,50.6,16.3,50.4,16.1,50.4L16.1,50.4z"/>
	<path class="st4" d="M12,48.8c-0.2,0-0.3,0.2-0.3,0.4c0,0.2,0.2,0.3,0.3,0.3c0.2,0,0.4-0.2,0.4-0.3C12.4,49,12.2,48.8,12,48.8
		L12,48.8z"/>
	<path class="st4" d="M15,48.7c-0.2,0-0.3,0.2-0.3,0.3c0,0.2,0.2,0.4,0.3,0.4c0.2,0,0.4-0.2,0.4-0.4C15.4,48.9,15.2,48.7,15,48.7
		L15,48.7z"/>
	<path class="st4" d="M8.1,49.2c-0.2,0-0.4,0.2-0.4,0.4c0,0.2,0.2,0.3,0.4,0.3c0.2,0,0.3-0.2,0.3-0.3C8.4,49.4,8.3,49.2,8.1,49.2
		L8.1,49.2z"/>
	<path class="st4" d="M8.6,51.7c-0.2,0-0.4,0.2-0.4,0.4c0,0.2,0.2,0.3,0.4,0.3c0.2,0,0.3-0.2,0.3-0.3C9,51.9,8.8,51.7,8.6,51.7
		L8.6,51.7z"/>
	<path class="st4" d="M18,49.1c-0.2,0-0.4,0.2-0.4,0.4s0.2,0.3,0.4,0.3c0.2,0,0.3-0.1,0.3-0.3S18.2,49.1,18,49.1L18,49.1z"/>
	<path class="st14" d="M8.1,46.4c-0.2,0-0.3-0.1-0.3-0.3l-0.3-1.4c0-0.2,0.1-0.4,0.3-0.4L9.2,44c0,0,0,0,0.1,0
		c0.2,0,0.3,0.1,0.3,0.3l0.3,1.4c0,0.2-0.1,0.4-0.3,0.4L8.1,46.4C8.2,46.4,8.2,46.4,8.1,46.4L8.1,46.4z"/>
	<path class="st14" d="M10.9,47.6c-0.1,0-0.1,0-0.2-0.1l-1.2-0.9c-0.1-0.1-0.2-0.3-0.1-0.5l0.8-1.2c0.1-0.1,0.2-0.1,0.3-0.1
		c0.1,0,0.1,0,0.2,0.1l1.2,0.9c0.1,0,0.1,0.1,0.1,0.2v0.2c0,0,0,0.1-0.1,0.1l-0.9,1.2C11.2,47.5,11,47.6,10.9,47.6L10.9,47.6z"/>
	<path class="st14" d="M13.1,46.2c-0.1,0-0.2,0-0.3-0.1L11.9,45c-0.1-0.2-0.1-0.4,0.1-0.5l1.1-0.9c0,0,0.1,0,0.1-0.1
		c0.1,0,0.1,0,0.2,0c0.1,0,0.2,0.1,0.3,0.1l0.9,1.1c0.1,0.2,0.1,0.4-0.1,0.5l-1.1,0.9C13.3,46.2,13.2,46.2,13.1,46.2
		C13.2,46.2,13.2,46.2,13.1,46.2L13.1,46.2z"/>
	<path class="st14" d="M15.8,47.6c-0.2,0-0.3-0.1-0.4-0.3l-0.3-1.4c-0.1-0.2,0.1-0.4,0.3-0.4l1.4-0.3c0,0,0.1,0,0.1,0
		c0.2,0,0.3,0.1,0.3,0.3l0.3,1.4c0,0.2-0.1,0.4-0.3,0.4L15.8,47.6C15.8,47.6,15.8,47.6,15.8,47.6L15.8,47.6z"/>
	<path class="st14" d="M18.8,46.8c-0.1,0-0.2-0.1-0.3-0.1l-0.9-1.1c-0.1-0.1-0.1-0.4,0.1-0.5l1.1-0.9c0,0,0,0,0.1,0
		c0.1,0,0.1,0,0.2,0c0.1,0,0.2,0,0.3,0.1l0.9,1.1c0.1,0.2,0.1,0.4-0.1,0.5L19,46.7C19,46.7,19,46.7,18.8,46.8
		C18.9,46.8,18.8,46.8,18.8,46.8L18.8,46.8z"/>
	<path class="st7" d="M6.9,59.8h8.7h5.1c0.3,0,0.5-0.2,0.5-0.5l2.6-27.1h1l0,0H25c0.1,0,0.2-0.1,0.2-0.2V32l0,0v-1.5l0,0v-0.1
		c0-0.1-0.1-0.2-0.2-0.2h-1.8v-0.1c0-0.1-0.1-0.2-0.2-0.2L6.2,28.5c-0.2,0-0.9-0.1-1.3-0.1c-0.4,0-0.5,0.1-0.5,0.3v1.4H2.7
		c-0.1,0-0.3,0.1-0.3,0.3V32c0,0.1,0.1,0.3,0.3,0.3h1l2.6,27.1C6.4,59.6,6.7,59.8,6.9,59.8L6.9,59.8z M7.8,58.3L5.4,33.8h16.8
		l-2.4,24.5H7.8z"/>
	<polygon class="st18" points="16.5,47 45.6,47 45.6,50.4 16.5,50.4 	"/>
	<polygon class="st3" points="16.5,49.8 45.6,49.8 45.6,53.1 16.5,53.2 	"/>
	<rect x="53.9" y="37.9" class="st6" width="3.9" height="9.7"/>
	<rect x="36.3" y="40.4" class="st6" width="17.6" height="7.3"/>
	<rect x="36.3" y="37.9" class="st2" width="17.6" height="2.5"/>
</g>
</svg>
