<?xml version="1.0" encoding="utf-8"?>
<!-- Generator: Adobe Illustrator 19.2.1, SVG Export Plug-In . SVG Version: 6.00 Build 0)  -->
<svg version="1.1" id="Слой_1" xmlns="http://www.w3.org/2000/svg" xmlns:xlink="http://www.w3.org/1999/xlink" x="0px" y="0px"
	 viewBox="0 0 62.7 65.3" style="enable-background:new 0 0 62.7 65.3;" xml:space="preserve">
<style type="text/css">
	.st0{fill:#FFCC00;}
	.st1{fill:#D0730E;}
	.st2{fill-rule:evenodd;clip-rule:evenodd;fill:#F18E00;}
	.st3{fill-rule:evenodd;clip-rule:evenodd;fill:#707173;}
	.st4{fill-rule:evenodd;clip-rule:evenodd;fill:#FFFFFF;}
	.st5{fill-rule:evenodd;clip-rule:evenodd;}
	.st6{fill-rule:evenodd;clip-rule:evenodd;fill:#B24C1F;}
	.st7{fill:#A9D7D9;}
	.st8{fill-rule:evenodd;clip-rule:evenodd;fill:#A9D7D9;}
	.st9{fill-rule:evenodd;clip-rule:evenodd;fill:#492822;}
	.st10{fill-rule:evenodd;clip-rule:evenodd;fill:#84543B;}
	.st11{fill-rule:evenodd;clip-rule:evenodd;fill:#6A3F38;}
	.st12{fill-rule:evenodd;clip-rule:evenodd;fill:#E87C3A;}
	.st13{fill-rule:evenodd;clip-rule:evenodd;fill:#F3D5B9;}
	.st14{fill:#FFFFFF;}
	.st15{fill-rule:evenodd;clip-rule:evenodd;fill:#BA4E47;}
	.st16{fill:#813D33;}
	.st17{fill:#F3D5B9;}
	.st18{fill-rule:evenodd;clip-rule:evenodd;fill:#9C9E9F;}
</style>
<g>
	<polygon class="st0" points="33.2,4 37.2,22.2 41.3,21.3 37.6,4 	"/>
	<polygon class="st0" points="43.3,4 47.2,22 49.2,21.5 45.4,4 	"/>
	<polygon class="st1" points="36.7,4 40.7,22.2 44.8,21.3 41,4 	"/>
	<path d="M45.9,4h-0.6c-6.4,11.1-9.9,23.1-1.9,36.2l0.5-0.3C35.9,26.9,39.3,15.2,45.9,4z"/>
	<path d="M41.6,4H40c-6.8,11.3-9.8,24.1,3.1,37.9l1-1C31.5,27.5,34.7,15.2,41.6,4z"/>
	<path class="st2" d="M36.3,19.7h12.8c0.6,0,1.2,0.3,1.2,0.6v9c0,0.3-0.5,0.6-1.2,0.6H36.3c-0.6,0-1.2-0.3-1.2-0.6v-9
		C35.1,20,35.7,19.7,36.3,19.7"/>
	<rect x="35.4" y="25.7" class="st1" width="15.2" height="0.6"/>
	<polygon class="st3" points="18.9,43.8 48,43.7 48,47.1 18.9,47.2 	"/>
	<polygon class="st4" points="8.8,44.5 23.6,44.5 24.1,39.6 8.3,39.6 	"/>
	<rect x="44.3" y="31.1" class="st5" width="2.7" height="8.4"/>
	<rect x="42.8" y="29.8" class="st5" width="5.8" height="2.4"/>
	<polygon class="st6" points="50.3,19.9 50.3,29.8 53.7,27.4 53.7,20.5 	"/>
	<polygon class="st5" points="48,48.3 48,54.1 56.2,51.4 56.4,46.9 50.7,48.2 	"/>
	<path class="st4" d="M21.9,51.5c-0.2,0-0.3,0.2-0.3,0.3c0,0.2,0.2,0.3,0.3,0.3c0.2,0,0.3-0.2,0.3-0.3
		C22.3,51.6,22.1,51.5,21.9,51.5"/>
	<path class="st4" d="M20,52.8c-0.2,0-0.3,0.2-0.3,0.3c0,0.2,0.2,0.3,0.3,0.3c0.2,0,0.3-0.2,0.3-0.3C20.3,52.9,20.2,52.8,20,52.8"/>
	<path class="st4" d="M20.4,49.9c-0.2,0-0.3,0.2-0.3,0.3c0,0.2,0.2,0.3,0.3,0.3c0.2,0,0.3-0.2,0.3-0.3
		C20.7,50.1,20.6,49.9,20.4,49.9"/>
	<path class="st7" d="M19.3,30.3l-1.1-0.1l7.2,0.6c0.1,0,0.2,0.1,0.2,0.2v0.1h-5.9V31C19.8,30.7,19.6,30.4,19.3,30.3L19.3,30.3z"/>
	<path class="st8" d="M17.7,15.8c-1,0.5-3.3,1.7-3.8,4.2c-0.7,3.4,3.1,5.8,3.1,8.1C22,21.4,14.1,21,17.7,15.8L17.7,15.8z"/>
	<path class="st8" d="M12.8,21.8c-0.4,0.5-1.3,1.5-1,2.9c0.3,1.8,2.7,2.2,3.1,3.4C15.9,23.7,12.1,25.1,12.8,21.8L12.8,21.8z"/>
	<polygon class="st4" points="8.8,44.6 23.8,44.6 24.2,39.7 8.3,39.7 	"/>
	<polygon class="st4" points="9.7,54.4 22.8,54.4 23.3,49.5 9.3,49.5 	"/>
	<polygon class="st4" points="9.3,49.5 23.3,49.5 23.7,44.6 8.8,44.6 	"/>
	<polygon class="st4" points="8.3,39.7 24.2,39.7 24.7,34.8 7.9,34.8 	"/>
	<polygon class="st4" points="10.2,59.3 22.3,59.3 22.8,54.4 9.7,54.4 	"/>
	<polygon class="st9" points="22.6,59.3 9.8,59.3 9.3,54.1 23.1,54.1 	"/>
	<polygon class="st10" points="11.3,59.3 15.2,59.3 15.2,54.1 10.9,54.1 	"/>
	<polygon class="st11" points="15.2,59.3 20.1,59.3 20.3,54.1 15.2,54.1 	"/>
	<polygon class="st12" points="23.2,54.1 9.4,54.1 8.9,49.1 23.7,49.1 	"/>
	<path class="st4" d="M12.8,51.4c-0.2,0-0.3,0.1-0.3,0.3s0.2,0.3,0.3,0.3c0.2,0,0.4-0.1,0.4-0.3S13,51.4,12.8,51.4L12.8,51.4z"/>
	<path class="st4" d="M14.1,52.9c-0.2,0-0.3,0.1-0.3,0.3s0.1,0.3,0.3,0.3s0.3-0.1,0.3-0.3S14.3,52.9,14.1,52.9L14.1,52.9z"/>
	<path class="st4" d="M15.5,51.2c-0.2,0-0.3,0.1-0.3,0.3s0.1,0.3,0.3,0.3s0.4-0.1,0.4-0.3S15.7,51.2,15.5,51.2L15.5,51.2z"/>
	<path class="st4" d="M17,52.2c-0.2,0-0.4,0.1-0.4,0.3S16.8,53,17,53s0.3-0.2,0.3-0.4S17.2,52.2,17,52.2L17,52.2z"/>
	<path class="st4" d="M22,51.6c-0.2,0-0.3,0.1-0.3,0.3c0,0.2,0.1,0.3,0.3,0.3s0.4-0.1,0.4-0.3C22.4,51.8,22.2,51.6,22,51.6L22,51.6z
		"/>
	<path class="st4" d="M20.1,52.9c-0.2,0-0.3,0.2-0.3,0.4c0,0.2,0.2,0.3,0.3,0.3c0.2,0,0.4-0.1,0.4-0.3
		C20.4,53.1,20.3,52.9,20.1,52.9L20.1,52.9z"/>
	<path class="st4" d="M18.6,51.4c-0.2,0-0.3,0.2-0.3,0.3c0,0.2,0.1,0.4,0.3,0.4s0.3-0.2,0.3-0.4C18.9,51.6,18.8,51.4,18.6,51.4
		L18.6,51.4z"/>
	<path class="st4" d="M14.4,49.8c-0.2,0-0.3,0.2-0.3,0.4c0,0.2,0.2,0.3,0.3,0.3c0.2,0,0.4-0.2,0.4-0.3C14.8,50,14.6,49.8,14.4,49.8
		L14.4,49.8z"/>
	<path class="st4" d="M17.5,49.7c-0.2,0-0.3,0.2-0.3,0.3c0,0.2,0.2,0.4,0.3,0.4c0.2,0,0.4-0.2,0.4-0.4
		C17.8,49.9,17.7,49.7,17.5,49.7L17.5,49.7z"/>
	<path class="st4" d="M10.5,50.2c-0.2,0-0.4,0.2-0.4,0.4c0,0.2,0.2,0.3,0.4,0.3s0.3-0.2,0.3-0.3C10.9,50.4,10.7,50.2,10.5,50.2
		L10.5,50.2z"/>
	<path class="st4" d="M11.1,52.7c-0.2,0-0.4,0.2-0.4,0.4c0,0.2,0.2,0.3,0.4,0.3c0.2,0,0.3-0.2,0.3-0.3
		C11.4,52.9,11.2,52.7,11.1,52.7L11.1,52.7z"/>
	<path class="st4" d="M20.5,50.1c-0.2,0-0.4,0.2-0.4,0.4s0.2,0.3,0.4,0.3c0.2,0,0.3-0.1,0.3-0.3S20.6,50.1,20.5,50.1L20.5,50.1z"/>
	<polygon class="st13" points="23.7,49.1 8.7,49.1 8.2,44.2 24.2,44.2 	"/>
	<path class="st14" d="M10.6,47.4c-0.2,0-0.3-0.1-0.3-0.3l-0.3-1.4c0-0.2,0.1-0.4,0.3-0.4l1.4-0.3c0,0,0,0,0.1,0
		c0.2,0,0.3,0.1,0.3,0.3l0.3,1.4c0,0.2-0.1,0.4-0.3,0.4L10.6,47.4C10.6,47.4,10.6,47.4,10.6,47.4L10.6,47.4z"/>
	<path class="st14" d="M13.4,48.6c-0.1,0-0.1,0-0.2-0.1L12,47.6c-0.1-0.1-0.2-0.3-0.1-0.5l0.8-1.2c0.1-0.1,0.2-0.1,0.3-0.1
		c0.1,0,0.1,0,0.2,0.1l1.2,0.9c0.1,0,0.1,0.1,0.1,0.2v0.2c0,0,0,0.1-0.1,0.1l-0.9,1.2C13.6,48.5,13.5,48.6,13.4,48.6L13.4,48.6z"/>
	<path class="st14" d="M15.6,47.2c-0.1,0-0.2,0-0.3-0.1L14.4,46c-0.1-0.2-0.1-0.4,0.1-0.5l1.1-0.9c0,0,0.1,0,0.1-0.1
		c0.1,0,0.1,0,0.2,0c0.1,0,0.2,0.1,0.3,0.1l0.9,1.1c0.1,0.2,0.1,0.4-0.1,0.5l-1.1,0.9C15.7,47.2,15.7,47.2,15.6,47.2
		C15.6,47.2,15.6,47.2,15.6,47.2L15.6,47.2z"/>
	<path class="st14" d="M18.2,48.6c-0.2,0-0.3-0.1-0.4-0.3l-0.3-1.4c-0.1-0.2,0.1-0.4,0.3-0.4l1.4-0.3c0,0,0.1,0,0.1,0
		c0.2,0,0.3,0.1,0.3,0.3l0.3,1.4c0,0.2-0.1,0.4-0.3,0.4L18.2,48.6C18.2,48.6,18.2,48.6,18.2,48.6L18.2,48.6z"/>
	<path class="st14" d="M21.2,47.8c-0.1,0-0.2-0.1-0.3-0.1l-0.9-1.1C20,46.3,20,46.1,20.1,46l1.1-0.9c0,0,0,0,0.1,0
		c0.1,0,0.1,0,0.2,0c0.1,0,0.2,0,0.3,0.1l0.9,1.1c0.1,0.2,0.1,0.4-0.1,0.5l-1.1,0.9C21.4,47.7,21.4,47.7,21.2,47.8
		C21.3,47.8,21.3,47.8,21.2,47.8L21.2,47.8z"/>
	<path class="st7" d="M9.4,60.8H18h5.1c0.3,0,0.5-0.2,0.5-0.5l2.6-27.1h1l0,0h0.1c0.1,0,0.2-0.1,0.2-0.2V33l0,0v-1.5l0,0v-0.1
		c0-0.1-0.1-0.2-0.2-0.2h-1.8v-0.1c0-0.1-0.1-0.2-0.2-0.2L8.7,29.5c-0.2,0-0.9-0.1-1.3-0.1c-0.4,0-0.5,0.1-0.5,0.3v1.4H5.2
		c-0.1,0-0.3,0.1-0.3,0.3V33c0,0.1,0.1,0.3,0.3,0.3h1l2.6,27.1C8.8,60.6,9.1,60.8,9.4,60.8L9.4,60.8z M10.2,59.3L7.9,34.8h16.8
		l-2.4,24.5H10.2z"/>
	<polygon class="st18" points="18.9,48 48,48 48,51.4 18.9,51.4 	"/>
	<polygon class="st3" points="18.9,50.8 48,50.8 48,54.1 18.9,54.2 	"/>
	<rect x="56.3" y="38.9" class="st6" width="3.9" height="9.7"/>
	<rect x="38.7" y="41.4" class="st6" width="17.6" height="7.3"/>
	<rect x="38.7" y="38.9" class="st2" width="17.6" height="2.5"/>
</g>
</svg>
