<svg xmlns="http://www.w3.org/2000/svg" viewBox="0 0 14.53 14.65">
	<defs>
		<style>
			.cls-1 {
			fill: none;
			stroke: #fefefe;
			stroke-linecap: round;
			stroke-linejoin: round;
			stroke-width: 0px;
			}
			.cls-2 {
			fill: #fefefe;
			}
		</style>
	</defs>
	<g id="Layer_1">
		<line class="cls-1" x1="10.85" y1="5.13" x2="3.68" y2="5.13" />
		<line class="cls-1" x1="10.85" y1="9.52" x2="3.68" y2="9.52" />
		<line class="cls-1" x1="10.85" y1="7.33" x2="3.68" y2="7.33" />
		<path class="cls-2" d="M2.41,1.89a7.33,7.33,0,0,0,.11,11L4.06,12A5.74,5.74,0,0,1,4,2.67L2.41,1.89Zm2.65,12.4a7.32,7.32,0,0,0,9.42-5.42L13,7.93A5.73,5.73,0,0,1,5,12.55ZM14.53,6A7.33,7.33,0,0,0,4.92.41L4.87,2.14l.08,0A5.74,5.74,0,0,1,13,6.89L14.53,6Z" />
	</g>
</svg>