<?xml version="1.0" encoding="utf-8"?>
<!-- Generator: Adobe Illustrator 19.2.1, SVG Export Plug-In . SVG Version: 6.00 Build 0)  -->
<svg version="1.1" id="Слой_1" xmlns="http://www.w3.org/2000/svg" xmlns:xlink="http://www.w3.org/1999/xlink" x="0px" y="0px" viewBox="0 0 35.2 35.6" style="enable-background:new 0 0 35.2 35.6;" xml:space="preserve">
    <style type="text/css">
    .st0 {
        fill: #FFB300;
    }
    </style>
    <g id="Layer_x0020_1">
        <path class="st0" d="M34.9,14.2c-0.7-3.5-2.5-6.8-5.2-9.3l-2.5,1.3c2.4,2,4.1,4.8,4.9,7.7c0.9,3.3,0.7,6.9-0.8,10.2
		c-0.6,1.3-1.3,2.4-2.2,3.5c-0.6,0.8-1.4,1.5-2.1,2.1l2.5,1.3c0.8-0.7,1.6-1.6,2.2-2.5c0.8-1,1.4-2.1,1.9-3.3
		C35.3,21.6,35.6,17.8,34.9,14.2z M16.4,35.6c2.1,0.1,4.1-0.1,6.1-0.7l0.2-2.8C21,32.7,19.2,33,17.4,33c-2.1,0-4.2-0.4-6.3-1.4
		c-2.5-1.1-4.5-2.9-6-4.9c-1.3-1.8-2.2-4-2.6-6.2L0.1,22c0.6,2.5,1.8,4.9,3.4,7c1.7,2.1,3.9,3.8,6.5,5C12.1,35,14.3,35.5,16.4,35.6z
		 M0.4,12.4C0.3,13,0.1,13.5,0,14l2.4,1.5c0.1-0.5,0.2-1,0.3-1.5c0.2-0.8,0.5-1.6,0.8-2.4v0l0.1-0.1C5.3,7.7,8.4,5,12.1,3.6
		c3.4-1.3,7.2-1.3,10.8,0.1l-0.1-2.8c-4.2-1.3-8.6-1-12.4,0.6c-3.9,1.7-7.3,4.8-9.2,9C0.9,11.1,0.6,11.8,0.4,12.4z" />
    </g>
</svg>