<?xml version="1.0" encoding="utf-8"?>
<!-- Generator: Adobe Illustrator 19.2.1, SVG Export Plug-In . SVG Version: 6.00 Build 0)  -->
<svg version="1.1" id="Слой_1" xmlns="http://www.w3.org/2000/svg" xmlns:xlink="http://www.w3.org/1999/xlink" x="0px" y="0px"
	 viewBox="0 0 47.5 47.5" style="enable-background:new 0 0 47.5 47.5;" xml:space="preserve">
<style type="text/css">
	.st0{fill:#66C3D0;}
	.st1{fill:#FEFEFE;}
	.st2{fill:#8A4134;}
	.st3{fill:#F3D7B6;}
</style>
<g id="Layer_x0020_1">
	<circle class="st0" cx="23.8" cy="23.8" r="23.8"/>
	<g id="_373570600">
		<path id="_513194616" class="st1" d="M20.2,8.5L20.2,8.5l-8.7,0c-0.1,0-0.2,0.1-0.2,0.2v0.1v0v1.6v0v0.1c0,0.1,0.1,0.2,0.2,0.2
			h0.1h0h8.6h0H36c0.1,0,0.3-0.1,0.3-0.3V8.8c0-0.2-0.1-0.3-0.3-0.3C36,8.5,20.2,8.5,20.2,8.5z"/>
		<path id="_513157488" class="st1" d="M32.1,6.6L13.7,8.1c-0.1,0-0.3,0.1-0.3,0.3v0.1h20.6V6.9c0-0.2-0.1-0.4-0.5-0.4
			C33.1,6.5,32.3,6.6,32.1,6.6z"/>
		<path id="_513207664" class="st1" d="M20.4,7.5l1.2-0.1l-7.9,0.6c-0.1,0-0.3,0.1-0.3,0.3v0.1h6.4V8.2C19.9,7.9,20.1,7.5,20.4,7.5z
			"/>
		<polygon id="_513177928" class="st2" points="16.6,34 16.1,28.6 15,18.8 32.6,18.8 31.4,28.6 16.1,28.6 31.4,28.6 30.9,34 
			30.4,39.3 23.8,39.3 22.4,39.3 18.3,39.3 18.3,39.3 17.1,39.3 		"/>
		<path id="_513206432" class="st3" d="M28.9,18.8h3.6l0.1-1.3c-0.1-0.1-0.2-0.2-0.3-0.2c-0.9-0.7-2.1-1.2-3.4-1.2
			c-0.9,0-1.7,0.2-2.5,0.6l0,0c-0.9-0.5-1.9-0.7-2.9-0.6c-0.8,0-1.6,0.3-2.2,0.6l0,0c-0.8-0.4-1.7-0.6-2.6-0.6c-0.1,0-0.2,0-0.3,0
			l0,0c-1.2,0.1-2.5,0.6-3.3,1.4l0.1,1.3h3.5h0h1.6h2.1h1.5h0h1.6h2.1H28.9C28.9,18.8,28.9,18.8,28.9,18.8z"/>
		<path id="_513206880" class="st1" d="M31.3,41h-9.5h-5.6c-0.3,0-0.6-0.2-0.6-0.6l-2.9-29.7h6.4h15.7L32,40.4
			C31.9,40.8,31.7,41,31.3,41z M30.4,39.3L33,12.4H14.5l2.6,26.9C17.1,39.3,30.4,39.3,30.4,39.3z"/>
	</g>
</g>
</svg>
