<?xml version="1.0" encoding="utf-8"?>
<!-- Generator: Adobe Illustrator 19.2.1, SVG Export Plug-In . SVG Version: 6.00 Build 0)  -->
<svg version="1.1" id="Слой_1" xmlns="http://www.w3.org/2000/svg" xmlns:xlink="http://www.w3.org/1999/xlink" x="0px" y="0px"
	 viewBox="0 0 26.5 26.5" style="enable-background:new 0 0 26.5 26.5;" xml:space="preserve">
<style type="text/css">
	.st0{fill:#EF7F1A;}
	.st1{fill:#D6D2D1;}
	.st2{fill:#B47247;}
	.st3{fill:#D99861;}
	.st4{fill:#A86B41;}
	.st5{fill:#FCEADF;}
	.st6{fill:#B6B3B2;}
	.st7{fill:#9A633E;}
	.st8{fill:#BC8254;}
	.st9{fill:#925D3C;}
	.st10{fill:#DAD7D7;}
	.st11{fill:#BA8157;}
	.st12{fill:#DDA675;}
	.st13{fill:#B37B54;}
	.st14{fill:#FEFCFD;}
</style>
<g id="Layer_x0020_1">
	<circle class="st0" cx="13.3" cy="13.3" r="13.3"/>
	<g id="_513204920">
		<path id="_513214160" class="st1" d="M21.1,14.6c-0.8,1.4-2.4,2-3.5,1.3c-1.1-0.7-1.3-2.3-0.4-3.7c0.8-1.4,2.4-2,3.5-1.3
			C21.7,11.5,21.9,13.2,21.1,14.6z M21.3,9.8c-1.5-0.9-3.8-0.1-5,1.9c-1.2,2-0.9,4.4,0.6,5.3c1.5,0.9,3.8,0.1,5-1.9
			C23.1,13.1,22.9,10.7,21.3,9.8z"/>
		<polygon id="_513166896" class="st1" points="12.8,6.4 5.8,6.4 8.2,20.9 17.3,20.9 19.7,6.4 		"/>
		<polygon id="_382558584" class="st2" points="12.8,6.4 7.1,6.4 9.1,18.5 16.5,18.5 18.4,6.4 		"/>
		<polygon id="_382536352" class="st3" points="18.4,6.4 7.1,6.4 7.6,9.4 17.9,9.4 		"/>
		<polygon id="_382548336" class="st4" points="8.9,17.3 9.1,18.5 16.5,18.5 16.7,17.3 		"/>
		<path id="_382563456" class="st5" d="M7.1,6.4l2.1-0.6c1-0.3,2-0.2,3,0.1c0.4,0.2,0.8,0.2,1.2,0c1-0.4,2-0.4,3-0.1l2,0.6
			C18.4,6.4,7.1,6.4,7.1,6.4z"/>
		<polygon id="_382522352" class="st6" points="10.8,20.9 8.2,20.9 5.8,6.4 7.1,6.4 7.6,9.4 9.1,18.5 10.5,18.5 		"/>
		<polygon id="_382556176" class="st7" points="9.1,18.5 7.6,9.4 9.3,9.4 10.3,17.3 8.9,17.3 		"/>
		<polygon id="_382512272" class="st8" points="9.3,9.4 7.6,9.4 7.1,6.4 8.9,6.4 		"/>
		<polygon id="_382535456" class="st9" points="10.5,18.5 9.1,18.5 8.9,17.3 10.3,17.3 		"/>
		<polygon id="_382568048" class="st10" points="15.3,20.9 14,20.9 14.1,18.5 15.7,18.5 		"/>
		<polygon id="_513151440" class="st11" points="15.9,17.3 14.1,17.3 14.4,9.4 17.2,9.4 		"/>
		<polygon id="_513186440" class="st12" points="17.2,9.4 14.4,9.4 14.5,6.4 17.7,6.4 		"/>
		<polygon id="_513151160" class="st13" points="15.7,18.5 14.1,18.5 14.1,17.3 15.9,17.3 		"/>
		<polygon id="_513205312" class="st14" points="19.7,6.4 17.3,20.9 16.1,20.9 18.4,6.4 		"/>
		<path id="_513154856" class="st14" d="M21.3,9.8c-0.9-0.5-2-0.5-3,0l0.5,1c0.6-0.3,1.3-0.3,1.9,0.1c1.1,0.7,1.3,2.3,0.4,3.7
			c-0.2,0.3-0.3,0.5-0.5,0.7l0.6,0.8c0.3-0.3,0.5-0.6,0.8-1C23.1,13.1,22.9,10.7,21.3,9.8z"/>
	</g>
</g>
</svg>
