<?xml version="1.0" encoding="utf-8"?>
<!-- Generator: Adobe Illustrator 19.2.1, SVG Export Plug-In . SVG Version: 6.00 Build 0)  -->
<svg version="1.1" id="Слой_1" xmlns="http://www.w3.org/2000/svg" xmlns:xlink="http://www.w3.org/1999/xlink" x="0px" y="0px"
	 viewBox="0 0 26.5 26.5" style="enable-background:new 0 0 26.5 26.5;" xml:space="preserve">
<style type="text/css">
	.st0{fill:#EF7F1A;}
	.st1{fill:#FDEAD4;}
	.st2{fill:#FEF7F7;}
	.st3{fill:#C79248;}
	.st4{fill:#F3C89B;}
	.st5{fill:#D9C9B6;}
	.st6{fill:#AF8146;}
	.st7{fill:#D0AD87;}
	.st8{fill:#FBD4BB;}
</style>
<g id="Layer_x0020_1">
	<circle class="st0" cx="13.3" cy="13.3" r="13.3"/>
	<g id="_513214720">
		<path id="_379973912" class="st1" d="M21.5,9.6h-2l-0.4,1.5h1.7c0.2,0,0.4,0.2,0.4,0.4l-0.5,3.6c0,0.2-0.2,0.3-0.4,0.3h-2.3
			l-0.3,1.4h3.2c0.5,0,1-0.4,1-0.9l0.7-5C22.7,10.3,22.2,9.6,21.5,9.6z"/>
		<path id="_379974136" class="st2" d="M22.6,11c0.1-0.7-0.4-1.3-1.2-1.3h-2l-0.4,1.5h1.7c0.2,0,0.4,0.2,0.4,0.4l-0.5,3.6l0,0
			l0.9,1.4c0.2-0.2,0.3-0.4,0.3-0.6C21.9,16,22.6,11,22.6,11z"/>
		<polygon id="_379950112" class="st1" points="13,7.4 4.7,7.4 8.6,20 17.4,20 21.3,7.4 		"/>
		<polygon id="_379950336" class="st3" points="13.1,7.4 6.6,7.4 9.6,18.1 16.5,18.1 19.5,7.4 		"/>
		<path id="_379950560" class="st1" d="M18.5,21.3l-1-1.3H8.6l-1,1.3c-0.2,0.2,0,0.6,0.3,0.6H13l0-1l0,1h5.2
			C18.5,21.9,18.7,21.6,18.5,21.3z"/>
		<path id="_379980184" class="st2" d="M17.5,20L17.5,20l3.8-12.6h-1.5L16,20h0l1,1.3c0.2,0.2,0,0.6-0.3,0.6h1.5
			c0.3,0,0.5-0.4,0.3-0.6L17.5,20z"/>
		<polygon id="_379979960" class="st4" points="19.5,7.4 6.6,7.4 8.1,12.7 18,12.7 		"/>
		<polygon id="_379971784" class="st5" points="13,20 8.6,20 4.7,7.4 6.6,7.4 9.6,18.1 13,18.1 		"/>
		<polygon id="_379972120" class="st6" points="13,18.1 9.6,18.1 6.6,7.4 8.1,12.7 13,12.7 		"/>
		<path id="_379972176" class="st5" d="M13,21.9H7.8c-0.2,0-0.4-0.2-0.4-0.4c0-0.1,0-0.2,0.1-0.2l1-1.3H13V21.9z"/>
		<path id="_379972400" class="st7" d="M13,12.7H8.1L6.6,7.4h3.2c0,0,0,0,0,0c0,0.3,0.2,0.5,0.5,0.5H13V12.7z"/>
		<path id="_510035936" class="st7" d="M13,7.9h-2.7c-0.3,0-0.5-0.2-0.5-0.5c0,0,0,0,0,0h1.4c0,0,0.1,0,0.1,0H13V7.9z"/>
		<path id="_510071944" class="st7" d="M13,7.4h-1.6c-0.1,0-0.1,0-0.1,0L13,7.4L13,7.4z"/>
		<path id="_510069032" class="st8" d="M8.6,7.4c0,0,0.2-1.5,3.5-1.9c0,0,0.9-0.1,0.2-0.8c0,0,3.6-0.6,5.2,2.7
			C17.5,7.4,8.6,7.4,8.6,7.4z"/>
	</g>
</g>
</svg>
