<svg version="1.1" xmlns="http://www.w3.org/2000/svg" viewBox="0 0 5.5 3.8" style="enable-background:new 0 0 5.5 3.8;" xml:space="preserve">
	<g>
		<path class="st0" d="M0.2,3.6C0.1,3.5,0,3.3,0,3.1C0,3,0,2.9,0.1,2.8c0-0.1,0.1-0.2,0.2-0.2l0,0L2.8,0l2.5,2.5l0,0
			c0.1,0.1,0.1,0.2,0.2,0.2v0c0,0.1,0.1,0.2,0.1,0.3c0,0.2-0.1,0.4-0.2,0.5C5.2,3.7,5.2,3.7,5.1,3.8h0C5,3.8,4.9,3.8,4.8,3.8
			c-0.2,0-0.4-0.1-0.5-0.2L3.1,2.5l0,0C3,2.4,2.9,2.3,2.8,2.3l0,0c-0.1,0-0.3,0-0.4,0.1h0l0,0v0L1.3,3.6l0,0C1.1,3.7,0.9,3.8,0.8,3.8
			c-0.1,0-0.2,0-0.3-0.1h0C0.4,3.7,0.3,3.7,0.2,3.6z"/>
	</g>
</svg>
