<svg id="Слой_1" data-name="Слой 1" xmlns="http://www.w3.org/2000/svg" viewBox="0 0 5.52 3.82">
	<g>
		<path class="cls-1" d="M0.21,0.22A0.73,0.73,0,0,0,0,.75a0.74,0.74,0,0,0,.22.53h0L2.76,3.82,5.31,1.27h0A0.76,0.76,0,0,0,5.47,1h0A0.74,0.74,0,0,0,5.52.75,0.73,0.73,0,0,0,5.31.22,0.76,0.76,0,0,0,5.06.06h0A0.77,0.77,0,0,0,4.77,0a0.73,0.73,0,0,0-.52.22L3.12,1.36h0a0.5,0.5,0,0,1-.35.15h0a0.5,0.5,0,0,1-.35-0.15h0L1.27,0.22h0A0.73,0.73,0,0,0,.75,0,0.76,0.76,0,0,0,.46.06h0A0.76,0.76,0,0,0,.21.22Z" transform="translate(0 0)" />
	</g>
</svg>