<?xml version="1.0" encoding="utf-8"?>
<!-- Generator: Adobe Illustrator 19.2.1, SVG Export Plug-In . SVG Version: 6.00 Build 0)  -->
<svg version="1.1" id="Слой_1" xmlns="http://www.w3.org/2000/svg" xmlns:xlink="http://www.w3.org/1999/xlink" x="0px" y="0px"
	 viewBox="0 0 31.4 31.4" style="enable-background:new 0 0 31.4 31.4;" xml:space="preserve">
<style type="text/css">
	.st0{fill:#F08365;}
	.st1{fill:#F3D7B6;}
	.st2{fill:#FEFEFE;}
</style>
<g id="Layer_x0020_1">
	<g id="_373575696">
		<circle id="_373586224" class="st0" cx="15.7" cy="15.7" r="15.7"/>
		<path id="_373572840" class="st1" d="M13.5,4.2C13.4,4,5.9,12.4,5.5,18c-0.2,2.4-0.6,6.1,3.3,8.2c3,1.7,6.5,1.2,8.8-0.1
			c2.7-1.5,3.9-4.4,2.9-8.9C20,15.3,15.2,9.8,13.5,4.2z"/>
		<path id="_373573064" class="st2" d="M8.6,22.5c1.5,3,5.3,3.2,5.8,0.6c0.3-1.3-3.1-1.8-5.1-5.4C8.2,15.7,7.1,19.6,8.6,22.5z"/>
		<path id="_373592608" class="st1" d="M21.9,4.7c0-0.1,3.1,3.4,3.3,5.8c0.1,1,0.2,2.5-1.4,3.4c-1.3,0.7-2.7,0.5-3.7,0
			c-1.1-0.6-1.6-1.8-1.2-3.7C19.2,9.3,21.2,7,21.9,4.7z"/>
		<path id="_373563208" class="st2" d="M20,12.3c0.6,1.2,2.2,1.4,2.4,0.3c0.1-0.6-1.3-0.7-2.1-2.2C19.9,9.5,19.4,11.1,20,12.3z"/>
	</g>
</g>
</svg>
