<svg id="Слой_1" data-name="Слой 1" xmlns="http://www.w3.org/2000/svg" viewBox="0 0 26.53 26.53"><defs><style>.cls-1{fill:#ef7f1a;}.cls-2{fill:#d6d2d1;}.cls-3{fill:#b47247;}.cls-4{fill:#d99861;}.cls-5{fill:#a86b41;}.cls-6{fill:#b6b3b2;}.cls-7{fill:#9a633e;}.cls-8{fill:#bc8254;}.cls-9{fill:#925d3c;}.cls-10{fill:#dad7d7;}.cls-11{fill:#ba8157;}.cls-12{fill:#dda675;}.cls-13{fill:#b37b54;}.cls-14{fill:#fefcfd;}</style></defs><title>ic_double espresso</title><g id="Layer_1"><circle class="cls-1" cx="13.26" cy="13.26" r="13.26"/><g id="_511590560" data-name=" 511590560"><path id="_383542640" data-name=" 383542640" class="cls-2" d="M21,14.73c-0.84,1.39-2.4,2-3.48,1.33s-1.27-2.31-.43-3.7,2.4-2,3.48-1.33S21.89,13.34,21,14.73ZM21.27,10c-1.54-.94-3.77-0.09-5,1.9s-0.93,4.35.61,5.29,3.77,0.09,5-1.9S22.81,10.89,21.27,10Z" transform="translate(0 0)"/><polygon id="_383574336" data-name=" 383574336" class="cls-2" points="12.71 6.6 5.78 6.6 8.19 21.06 17.23 21.06 19.64 6.6 12.71 6.6"/><polygon id="_383526344" data-name=" 383526344" class="cls-3" points="12.71 9.61 7.04 9.61 9.02 18.71 16.41 18.71 18.38 9.61 12.71 9.61"/><polygon id="_383580496" data-name=" 383580496" class="cls-4" points="19.1 9.61 7.76 9.61 8.25 10.54 18.61 10.54 19.1 9.61"/><polygon id="_383560336" data-name=" 383560336" class="cls-5" points="8.82 17.52 9.02 18.71 16.41 18.71 16.6 17.52 8.82 17.52"/><polygon id="_383526848" data-name=" 383526848" class="cls-6" points="10.78 21.06 8.19 21.06 5.78 6.6 7.04 6.6 7.53 9.57 9.02 18.71 10.46 18.71 10.78 21.06"/><polygon id="_383576968" data-name=" 383576968" class="cls-7" points="9.02 18.71 7.53 9.61 9.23 9.61 10.3 17.52 8.82 17.52 9.02 18.71"/><polygon id="_382574376" data-name=" 382574376" class="cls-8" points="9.36 10.54 7.68 10.54 7.53 9.61 9.23 9.61 9.36 10.54"/><polygon id="_382530752" data-name=" 382530752" class="cls-9" points="10.46 18.71 9.02 18.71 8.82 17.52 10.3 17.52 10.46 18.71"/><polygon id="_382521176" data-name=" 382521176" class="cls-10" points="15.27 21.06 13.95 21.06 14.04 18.71 15.66 18.71 15.27 21.06"/><polygon id="_382535680" data-name=" 382535680" class="cls-11" points="15.86 17.52 14.08 17.52 14.37 9.61 17.16 9.61 15.86 17.52"/><polygon id="_382562392" data-name=" 382562392" class="cls-12" points="17 10.54 14.34 10.54 14.37 9.61 17.16 9.61 17 10.54"/><polygon id="_382574600" data-name=" 382574600" class="cls-13" points="15.66 18.71 14.04 18.71 14.08 17.52 15.86 17.52 15.66 18.71"/><polygon id="_382571464" data-name=" 382571464" class="cls-14" points="19.64 6.6 17.23 21.06 16.01 21.06 18.38 6.6 19.64 6.6"/><path id="_382562560" data-name=" 382562560" class="cls-14" d="M21.27,10a3.07,3.07,0,0,0-3,0l0.49,1a2.08,2.08,0,0,1,1.89.07c1.08,0.66,1.27,2.31.43,3.7a3.72,3.72,0,0,1-.53.68l0.6,0.81a5.32,5.32,0,0,0,.76-1c1.2-2,.93-4.35-0.61-5.29h0Z" transform="translate(0 0)"/></g></g></svg>