<?xml version="1.0" encoding="utf-8"?>
<!-- Generator: Adobe Illustrator 19.2.1, SVG Export Plug-In . SVG Version: 6.00 Build 0)  -->
<svg version="1.1" id="Слой_1" xmlns="http://www.w3.org/2000/svg" xmlns:xlink="http://www.w3.org/1999/xlink" x="0px" y="0px"
	 viewBox="0 0 30.5 30.5" style="enable-background:new 0 0 30.5 30.5;" xml:space="preserve">
<style type="text/css">
	.st0{fill:#FEFEFE;}
	.st1{fill:#8A4134;}
	.st2{fill:#F3D7B6;}
	.st3{fill:#66C3D0;}
	.st4{fill:#74473D;}
</style>
<g id="Layer_x0020_1">
	<g id="_519796800">
		<circle id="_374990864" class="st0" cx="15.2" cy="15.2" r="15.2"/>
		<g>
			<path id="_374995344" class="st1" d="M25,16.2c0,5.2-4.4,9.4-9.8,9.4c-5.4,0-9.8-4.2-9.8-9.4c0-1.5,0.4-2.9,1-4.2
				c0.1-0.2,0.3-0.5,0.4-0.7c0,0,0,0,0,0c1.1-1,4.4-1.7,8.4-1.7c3.9,0,7.2,0.7,8.4,1.7c0.2,0.2,0.3,0.5,0.4,0.7c0,0,0,0,0,0
				C24.7,13.3,25,14.7,25,16.2z"/>
			<path id="_381736536" class="st2" d="M24,12C24,12,24,12,24,12C24,12,24,12.1,24,12c0,1.4-3.9,2.4-8.8,2.4
				c-4.8,0-8.8-1.1-8.8-2.4c0,0,0,0,0,0c0,0,0,0,0,0c0-0.1,0-0.2,0-0.2c0.1-0.2,0.2-0.3,0.4-0.5c0,0,0,0,0,0c1.1-1,4.4-1.7,8.4-1.7
				c3.9,0,7.2,0.7,8.4,1.7c0.2,0.2,0.3,0.3,0.4,0.5c0,0,0,0,0,0C24,11.9,24,12,24,12z"/>
			<path id="_381779264" class="st3" d="M15.2,10.5c-4,0-7.3,0.7-7.3,1.5c0,0.8,3.3,1.5,7.3,1.5c4,0,7.3-0.7,7.3-1.5
				C22.5,11.1,19.3,10.5,15.2,10.5C15.2,10.5,15.2,10.5,15.2,10.5z"/>
			<polygon id="_381742304" class="st4" points="14.6,13.5 14,13.5 16.8,5.3 22.5,4.8 22.6,5.4 17.2,5.9 			"/>
		</g>
	</g>
</g>
</svg>
