<?xml version="1.0" encoding="utf-8"?>
<!-- Generator: Adobe Illustrator 19.2.1, SVG Export Plug-In . SVG Version: 6.00 Build 0)  -->
<svg version="1.1" id="Слой_1" xmlns="http://www.w3.org/2000/svg" xmlns:xlink="http://www.w3.org/1999/xlink" x="0px" y="0px"
	 viewBox="0 0 26.5 26.5" style="enable-background:new 0 0 26.5 26.5;" xml:space="preserve">
<style type="text/css">
	.st0{fill:#EF7F1A;}
	.st1{fill:#D6D2D1;}
	.st2{fill:#613A2B;}
	.st3{fill:#B47247;}
	.st4{fill:#D79869;}
	.st5{fill:#FCEADF;}
	.st6{fill:#FEFCFD;}
	.st7{fill:#604738;}
	.st8{fill:#B6B3B2;}
	.st9{fill:#533529;}
	.st10{fill:#9A633E;}
	.st11{fill:#BA8159;}
	.st12{fill:#DEC8BD;}
	.st13{fill:#DEDBDB;}
	.st14{fill:#DAD7D7;}
	.st15{fill:#724B3B;}
	.st16{fill:#BA8157;}
	.st17{fill:#DDA67C;}
	.st18{fill:#FDEBE2;}
	.st19{fill:#AEAAA8;}
</style>
<g id="Layer_x0020_1">
	<g id="_381915208">
		<circle id="_382663336" class="st0" cx="13.3" cy="13.3" r="13.3"/>
		<g>
			<path id="_382695368" class="st1" d="M18.7,4.6H7.8c0,0,0,17.1,5.4,16.5C18.8,21.7,18.7,4.6,18.7,4.6z"/>
			<path id="_382650064" class="st2" d="M17.7,4.6H8.8c0,0,0,15.8,4.4,15.2C17.7,20.4,17.7,4.6,17.7,4.6L17.7,4.6z"/>
			<path id="_382671568" class="st1" d="M16.4,23.2l-1.8-1.7h-2.7l-1.8,1.7c-0.2,0.2-0.1,0.5,0.2,0.5h5.8
				C16.4,23.7,16.6,23.4,16.4,23.2z"/>
			<path id="_382680472" class="st3" d="M10.6,17.5h5.3c0.3-0.8,0.6-1.7,0.8-2.7H9.8C10,15.8,10.3,16.7,10.6,17.5L10.6,17.5z"/>
			<path id="_382657400" class="st4" d="M9.2,10.7c0.1,1.4,0.3,2.8,0.6,4.1h6.9c0.3-1.3,0.5-2.7,0.6-4.1H9.2L9.2,10.7z"/>
			<path id="_382646704" class="st5" d="M17.7,4.6H8.8c0,0,0,1.9,0.2,4.3h8.5C17.7,6.5,17.7,4.6,17.7,4.6z"/>
			<path id="_382683104" class="st4" d="M17.5,8.9H9c0,0.6,0.1,1.2,0.2,1.8h8.2C17.4,10.1,17.5,9.5,17.5,8.9z"/>
			<path id="_382656280" class="st6" d="M18.7,4.6h-1c0,0,0.2,16.2-4.9,16.5c0.1,0,0.3,0,0.4,0C18.8,21.7,18.7,4.6,18.7,4.6z"/>
			<path id="_382642616" class="st7" d="M9.1,16.2C7.8,11.3,7.8,4.6,7.8,4.6l0,0C7.8,4.6,7.8,11.3,9.1,16.2z"/>
			<path id="_382641048" class="st8" d="M13,21.1c-1.9,0-3.1-2.2-3.8-4.9C7.8,11.3,7.8,4.6,7.8,4.6h1l0,0v0l0,0l0,0v0l0,0l0,0v0v0
				l0,0v0v0c0,0,0,0,0,0c0,0,0,0,0,0c0,0,0,0,0,0l0,0c0,0.1,0,1.9,0.2,4.3l0,0l0,0l0,0c0,0.5,0.1,1.1,0.1,1.6c0,0,0,0,0,0
				c0,0,0,0,0,0c0,0,0,0,0,0c0,0,0,0,0,0c0,0,0,0,0,0c0,0,0,0,0,0c0,0,0,0,0,0c0,0,0,0,0,0c0,0,0,0,0,0c0,0,0,0,0,0c0,0,0,0,0,0
				c0,0,0,0,0,0l0,0c0,0,0,0.1,0,0.1l0,0c0,0.2,0,0.3,0.1,0.5c0,0,0,0,0,0c0,0,0,0,0,0c0,0,0,0,0,0c0,0,0,0,0,0
				c0.5,4,1.4,8.3,3.6,8.6c0.3,0.4,0.7,0.7,1,1c-0.3,0.2-0.7,0.3-1,0.3C12.9,21.1,12.9,21.1,13,21.1c0.1,0,0.2,0,0.3,0c0,0,0,0,0,0
				C13.2,21.1,13.1,21.1,13,21.1L13,21.1z"/>
			<path id="_382645528" class="st9" d="M12.8,19.8c-2.1-0.3-3.1-4.6-3.6-8.6c0.1,1.2,0.3,2.4,0.6,3.5l0,0c0.2,1,0.5,1.9,0.8,2.7h1
				C12,18.4,12.3,19.2,12.8,19.8z M9.2,11.3C9.2,11.3,9.2,11.3,9.2,11.3C9.2,11.3,9.2,11.3,9.2,11.3z M9.2,11.2
				C9.2,11.2,9.2,11.2,9.2,11.2C9.2,11.2,9.2,11.2,9.2,11.2z M9.2,10.6L9.2,10.6L9.2,10.6z M9.2,10.6C9.2,10.6,9.2,10.6,9.2,10.6
				C9.2,10.6,9.2,10.6,9.2,10.6z M9.2,10.6C9.2,10.6,9.1,10.6,9.2,10.6C9.1,10.6,9.2,10.6,9.2,10.6z M9.1,10.6
				C9.1,10.6,9.1,10.6,9.1,10.6C9.1,10.6,9.1,10.6,9.1,10.6z M9.1,10.6C9.1,10.6,9.1,10.6,9.1,10.6C9.1,10.6,9.1,10.6,9.1,10.6z
				 M9.1,10.5C9.1,10.5,9.1,10.5,9.1,10.5C9.1,10.5,9.1,10.5,9.1,10.5z M9.1,10.5C9.1,10.5,9.1,10.5,9.1,10.5
				C9.1,10.5,9.1,10.5,9.1,10.5z M8.8,4.6L8.8,4.6L8.8,4.6z M8.8,4.6C8.8,4.6,8.8,4.6,8.8,4.6C8.8,4.6,8.8,4.6,8.8,4.6z M8.8,4.6
				L8.8,4.6L8.8,4.6z M8.8,4.6L8.8,4.6L8.8,4.6z M8.8,4.6L8.8,4.6L8.8,4.6z M8.8,4.6L8.8,4.6L8.8,4.6z M8.8,4.6L8.8,4.6L8.8,4.6z"/>
			<path id="_382678456" class="st10" d="M11.6,17.5h-1c-0.3-0.8-0.6-1.7-0.8-2.7h1.1C11.1,15.8,11.3,16.7,11.6,17.5z"/>
			<path id="_382670616" class="st11" d="M10.9,14.8H9.8c-0.2-1.1-0.4-2.4-0.6-3.5c0,0,0,0,0,0c0,0,0,0,0,0c0,0,0,0,0,0c0,0,0,0,0,0
				c0-0.2,0-0.3-0.1-0.5h1.1C10.4,12.1,10.6,13.5,10.9,14.8L10.9,14.8z"/>
			<path id="_381912744" class="st12" d="M10.1,8.9H9C8.8,6.6,8.8,4.8,8.8,4.6l0,0c0,0,0,0,0,0c0,0,0,0,0,0s0,0,0,0v0v0l0,0v0v0l0,0
				l0,0v0l0,0l0,0v0l0,0h1.1C9.9,4.6,9.9,6.5,10.1,8.9z"/>
			<path id="_381870856" class="st11" d="M10.2,10.7H9.2c0,0,0-0.1,0-0.1l0,0c0,0,0,0,0,0c0,0,0,0,0,0c0,0,0,0,0,0c0,0,0,0,0,0
				c0,0,0,0,0,0c0,0,0,0,0,0c0,0,0,0,0,0c0,0,0,0,0,0c0,0,0,0,0,0c0,0,0,0,0,0c0,0,0,0,0,0c0,0,0,0,0,0C9.1,10,9,9.4,9,8.9h1.1
				C10.1,9.5,10.2,10.1,10.2,10.7z"/>
			<path id="_381872984" class="st13" d="M13.5,21.1c-0.1,0-0.2,0-0.3,0l0,0c-0.1,0-0.2,0-0.3,0c-0.1,0-0.1,0-0.2,0
				c0.4,0,0.7-0.1,1-0.3c0.1,0.1,0.3,0.2,0.4,0.2C14.1,21.1,13.8,21.1,13.5,21.1z"/>
			<path id="_381862120" class="st14" d="M13.6,20.7c0,0,0.1-0.3,0.2-0.8c0.4-0.1,0.7-0.3,1-0.6C14.5,19.9,14.1,20.3,13.6,20.7z"/>
			<path id="_381854728" class="st15" d="M13.8,19.8c0.1-0.5,0.2-1.3,0.4-2.3h1.4c-0.2,0.7-0.5,1.3-0.7,1.8
				C14.5,19.6,14.2,19.8,13.8,19.8z"/>
			<path id="_381877184" class="st16" d="M15.6,17.5h-1.4c0.1-0.8,0.2-1.7,0.3-2.7h1.8C16,15.8,15.8,16.7,15.6,17.5z"/>
			<path id="_381868616" class="st17" d="M16.2,14.8h-1.8c0.1-1.2,0.2-2.6,0.2-4.1h2C16.6,12.1,16.4,13.5,16.2,14.8z"/>
			<path id="_381876568" class="st18" d="M16.7,8.9h-2.1c0-1.4-0.1-2.8-0.3-4.3h2.4C16.7,4.6,16.8,6.5,16.7,8.9z"/>
			<path id="_381871640" class="st17" d="M16.7,10.7h-2c0-0.6,0-1.2,0-1.8h2.1C16.7,9.5,16.7,10.1,16.7,10.7z"/>
			<path id="_382697384" class="st19" d="M13.3,22.8c-0.8,0-1.7-0.2-2.2-0.5l0.9-0.8h2.7l0.9,0.9C15,22.6,14.1,22.8,13.3,22.8z"/>
			<path id="_382663392" class="st1" d="M15.4,21.5c0,0.5-1,0.8-2.2,0.8c-1.2,0-2.2-0.4-2.2-0.8c0-0.5,1-0.8,2.2-0.8
				C14.5,20.6,15.4,21,15.4,21.5z"/>
			<path id="_382644464" class="st6" d="M15.1,21.2c0,0.3-0.7,0.6-1.5,0.6c-0.8,0-1.5-0.3-1.5-0.6c0-0.3,0.7-0.6,1.5-0.6
				C14.4,20.6,15.1,20.9,15.1,21.2z"/>
			<path id="_382655944" class="st6" d="M13.8,22.8l0.9,0.9h1.6c0.2,0,0.3-0.2,0.2-0.4l-0.9-1C15.5,22.3,14.4,22.8,13.8,22.8z"/>
			<path id="_382658632" class="st5" d="M8.8,4.6c0,0,1-1.8,4.4-1.8c3.5,0,4.4,1.8,4.4,1.8H8.8L8.8,4.6z"/>
		</g>
	</g>
</g>
</svg>
