<?xml version="1.0" encoding="utf-8"?>
<!-- Generator: Adobe Illustrator 19.2.1, SVG Export Plug-In . SVG Version: 6.00 Build 0)  -->
<svg version="1.1" id="Слой_1" xmlns="http://www.w3.org/2000/svg" xmlns:xlink="http://www.w3.org/1999/xlink" x="0px" y="0px"
	 viewBox="0 0 30.5 30.5" style="enable-background:new 0 0 30.5 30.5;" xml:space="preserve">
<style type="text/css">
	.st0{fill:#FEFEFE;}
	.st1{fill:#F9B004;}
	.st2{fill:#FECC00;}
	.st3{fill:#8A4134;}
</style>
<g id="Layer_x0020_1">
	<g id="_513212088">
		<circle id="_512303376" class="st0" cx="15.2" cy="15.2" r="15.2"/>
		<g>
			<path id="_512333560" class="st1" d="M24.8,15.2c0,4.8-1.7,7.4-4.2,8.6c-1.5,0.8-3.4,1-5.3,1c-2.1,0-3.9-0.3-5.5-1.1
				c-2.5-1.3-4.1-3.9-4.1-8.6c0-7.6,9.5-10.6,9.5-11.5C15.2,4.6,24.8,7.5,24.8,15.2z"/>
			<path id="_512344256" class="st2" d="M15.7,22.5c0.1-0.1,0.2-0.3,0.5-0.2c0.3,0.1,0.2,0.6,0.6,0.7c0.5,0.1,0.8-0.5,1.3-0.3
				c0.4,0.1,0.3,0.6,0.6,0.7c0.2,0.1,0.4-0.1,0.5-0.2c0,0,0.4-0.3,0.4,0.5c0,0.3,1.1,0.1,1.1,0.1c-0.5,0.3-0.9,0.4-1.4,0.6
				c-1.2,0.4-3.2,0.5-3.8,0.5h-0.1h0h-0.1c-0.6,0-2.6-0.1-3.8-0.5c-0.5-0.1-0.9-0.3-1.4-0.6c0,0,1.1,0.2,1.1-0.1
				c0-0.8,0.3-0.6,0.4-0.5c0.1,0.1,0.3,0.3,0.5,0.2c0.3-0.1,0.2-0.6,0.6-0.7c0.5-0.2,0.8,0.4,1.3,0.3c0.3-0.1,0.3-0.6,0.6-0.7
				c0.2-0.1,0.3,0.1,0.4,0.2C15,22.8,15.4,22.9,15.7,22.5L15.7,22.5z"/>
			<path id="_381744152" class="st3" d="M15.2,3.5c-0.5,0-0.9,0.9-1.2,1.1c-2.3,1.1-2.9,1.6-4.2,2.8c-1.5,1.4-2.1,2-2.4,3.5
				c0.5,1.5,3.6-3.6,3.7-2.6c-1,2.8-1.2,3.2-0.5,3.7c1,0.7,2.6-4,2.9-4.1c0.8-0.2,0,4.6,1.2,4.9c1.7,0.4,0.8-5.3,1.8-5
				c0.5,0.1,2.5,4.9,3.5,4.2c0.7-0.5,0.5-0.9-0.5-3.7c0.1-1,3.2,4.1,3.7,2.6c-0.3-1.4-0.9-2.1-2.4-3.5c-1.3-1.2-2-1.7-4.3-2.8
				C16,4.4,15.7,3.5,15.2,3.5z"/>
		</g>
	</g>
</g>
</svg>
