<?xml version="1.0" encoding="utf-8"?>
<!-- Generator: Adobe Illustrator 19.2.1, SVG Export Plug-In . SVG Version: 6.00 Build 0)  -->
<svg version="1.1" id="Слой_1" xmlns="http://www.w3.org/2000/svg" xmlns:xlink="http://www.w3.org/1999/xlink" x="0px" y="0px"
	 viewBox="0 0 26.5 26.5" style="enable-background:new 0 0 26.5 26.5;" xml:space="preserve">
<style type="text/css">
	.st0{fill:#EF7F1A;}
	.st1{fill:#F3F3F3;}
	.st2{fill:#E4E2E2;}
	.st3{fill:#C1BBB9;}
	.st4{fill:#FEFCFD;}
	.st5{fill:#D6D2D1;}
	.st6{fill:#553A2B;}
	.st7{fill:#42362D;}
	.st8{fill:#DAD7D7;}
	.st9{fill:#674B39;}
	.st10{fill:#55473D;}
	.st11{fill:#FBCE9B;}
	.st12{fill:#FCD3A7;}
	.st13{fill:#B6B3B2;}
	.st14{fill:#4A362A;}
	.st15{fill:#3B322A;}
	.st16{fill:#DBB080;}
	.st17{fill:#BAB7B7;}
	.st18{fill:#5A4435;}
	.st19{fill:#4A3F37;}
	.st20{fill:#FAC077;}
</style>
<g id="Layer_x0020_1">
	<circle class="st0" cx="13.3" cy="13.3" r="13.3"/>
	<g id="_382666360">
		<path id="_382697104" class="st1" d="M22.6,18.5H4c-0.5,0-0.8-0.4-0.8-0.8c0-0.5,0.4-0.8,0.8-0.8h18.6c0.5,0,0.8,0.4,0.8,0.8
			C23.4,18.1,23,18.5,22.6,18.5z"/>
		<polygon id="_382673640" class="st2" points="6.8,19.3 19.8,19.3 19.8,18.5 6.8,18.5 		"/>
		<polygon id="_382677448" class="st3" points="6.8,19 19.8,19 19.8,18.5 6.8,18.5 		"/>
		<path id="_382665128" class="st1" d="M20.4,14.2c-1.1,0-1.9-0.9-1.9-1.9c0-1.1,0.9-1.9,1.9-1.9c1.1,0,1.9,0.9,1.9,1.9
			C22.3,13.3,21.5,14.2,20.4,14.2z M20.4,9.2c-1.7,0-3,1.3-3,3s1.3,3,3,3c1.7,0,3-1.3,3-3C23.4,10.6,22,9.2,20.4,9.2z"/>
		<path id="_382644184" class="st4" d="M23.4,12.2c0-1.7-1.3-3-3-3c-0.3,0-0.6,0-0.9,0.1l0.1,1.1c0.2-0.1,0.5-0.1,0.7-0.1
			c1.1,0,1.9,0.9,1.9,1.9c0,0.5-0.2,1-0.6,1.4l0.6,0.9C23,13.9,23.4,13.1,23.4,12.2z"/>
		<path id="_382705672" class="st5" d="M20.9,7.2H5.7c0,0-1.3,7.2,4.8,9.6H16C22.2,14.4,20.9,7.2,20.9,7.2L20.9,7.2z"/>
		<path id="_382682712" class="st6" d="M7,8.3c-0.3,0-0.5,0.2-0.5,0.5c0,0.5,0,1.2,0.1,1.8c0.5,3.3,3.4,5.7,6.6,5.7s6.1-2.4,6.6-5.7
			C20,9.9,20,9.3,20,8.8c0-0.3-0.2-0.5-0.5-0.5C19.5,8.3,7,8.3,7,8.3z"/>
		<path id="_382670168" class="st7" d="M13.3,16.4c1.7,0,3.3-0.7,4.5-1.8H8.8C10,15.7,11.6,16.4,13.3,16.4L13.3,16.4z"/>
		<path id="_382652136" class="st8" d="M14.5,16.4c-0.1,0-0.2-0.1-0.3-0.1c0.4-0.1,0.8-0.2,1.2-0.3C15.1,16.2,14.8,16.3,14.5,16.4z"
			/>
		<path id="_382705448" class="st9" d="M14.2,16.3C14.2,16.3,14.2,16.3,14.2,16.3c0.4-0.1,0.8-0.2,1.2-0.3c0,0,0,0,0,0
			C15,16.1,14.6,16.2,14.2,16.3z M17.1,14.6h-1.6c0.7-1.2,1.4-3.1,1.5-6h2.3C19.2,10.2,18.8,12.7,17.1,14.6z"/>
		<path id="_382642952" class="st10" d="M14.2,16.3C14.2,16.3,14.2,16.3,14.2,16.3c0.4-0.4,0.9-0.9,1.3-1.7h1.6
			c-0.5,0.5-1,1-1.7,1.4C15,16.1,14.6,16.2,14.2,16.3z"/>
		<path id="_382673528" class="st8" d="M19.3,7.9C19.3,7.9,19.3,7.9,19.3,7.9l-2.3,0c0-0.2,0-0.5,0-0.7h2.3
			C19.3,7.2,19.3,7.5,19.3,7.9z"/>
		<path id="_382657848" class="st11" d="M6.5,8.6L6.5,8.6l13.5,0v0c0-0.4-0.3-0.7-0.8-0.7h-12C6.8,7.9,6.5,8.2,6.5,8.6L6.5,8.6z"/>
		<path id="_382681704" class="st12" d="M19.3,8.7H17c0-0.2,0-0.5,0-0.8h2.3c0,0,0,0,0,0C19.3,8.1,19.3,8.4,19.3,8.7z"/>
		<path id="_382571744" class="st13" d="M16,16.8h-2.8c0.5-0.1,0.9-0.2,1.3-0.4C15.4,16.7,16,16.8,16,16.8z M13.3,16.8h-2.8l0,0
			c-6-2.5-4.8-9.6-4.8-9.6h3.1c0,0.2,0,0.5,0,0.7H7.3c-0.4,0-0.8,0.3-0.8,0.7v0h0c0,0,0,0.1,0,0.1c0,0.5,0,1.2,0.1,1.8
			c0.5,3.3,3.3,5.7,6.6,5.7c0,0,0,0,0,0c0,0,0,0,0,0c0,0,0,0,0,0c0,0,0,0,0,0c0,0,0,0,0,0c0,0,0,0,0,0c0,0,0,0,0,0c0,0,0,0,0,0l0,0
			c0,0,0,0,0,0c0,0,0,0,0,0c0,0,0,0,0,0c0,0,0,0,0,0c0,0,0,0,0,0c0,0,0,0,0,0c0,0,0,0,0,0c0,0,0,0,0,0c0.3,0,0.5,0,0.8-0.1
			C13.6,16.7,13.3,16.8,13.3,16.8L13.3,16.8z"/>
		<path id="_382527000" class="st14" d="M13.3,16.4C13.3,16.4,13.3,16.4,13.3,16.4C13.3,16.4,13.3,16.4,13.3,16.4z M13.3,16.4
			C13.3,16.4,13.3,16.4,13.3,16.4C13.3,16.4,13.3,16.4,13.3,16.4z M13.3,16.4C13.2,16.4,13.2,16.4,13.3,16.4
			C13.2,16.4,13.2,16.4,13.3,16.4z M13.3,16.4C13.3,16.4,13.3,16.4,13.3,16.4C13.3,16.4,13.3,16.4,13.3,16.4z M13.2,16.4
			C13.2,16.4,13.2,16.4,13.2,16.4C13.2,16.4,13.2,16.4,13.2,16.4z M13.3,16.4C13.3,16.4,13.3,16.4,13.3,16.4
			C13.3,16.4,13.3,16.4,13.3,16.4z M13.2,16.4C13.2,16.4,13.2,16.4,13.2,16.4C13.2,16.4,13.2,16.4,13.2,16.4z M13.3,16.4
			C13.3,16.4,13.3,16.4,13.3,16.4C13.3,16.4,13.3,16.4,13.3,16.4z M13.2,16.4c-3.2,0-6-2.4-6.6-5.7C6.5,9.9,6.5,9.3,6.5,8.8
			c0,0,0-0.1,0-0.1h2.3c0.1,2.9,1.3,4.7,2.7,6H8.8C10,15.7,11.5,16.3,13.2,16.4z M13.3,16.4c0.3,0,0.5,0,0.8-0.1c0,0,0,0,0,0
			C13.8,16.3,13.6,16.4,13.3,16.4z"/>
		<path id="_382570400" class="st15" d="M13.3,16.4L13.3,16.4C13.3,16.4,13.3,16.4,13.3,16.4C13.3,16.4,13.3,16.4,13.3,16.4
			C13.2,16.4,13.2,16.4,13.3,16.4C13.2,16.4,13.2,16.4,13.3,16.4C13.2,16.4,13.2,16.4,13.3,16.4C13.2,16.4,13.2,16.4,13.3,16.4
			C13.2,16.4,13.2,16.4,13.3,16.4C13.2,16.4,13.2,16.4,13.3,16.4c-1.7,0-3.3-0.7-4.5-1.8h2.7c0.9,0.8,1.9,1.3,2.7,1.7c0,0,0,0,0,0
			C13.8,16.3,13.6,16.4,13.3,16.4C13.3,16.4,13.3,16.4,13.3,16.4C13.3,16.4,13.3,16.4,13.3,16.4C13.3,16.4,13.3,16.4,13.3,16.4
			C13.3,16.4,13.3,16.4,13.3,16.4C13.3,16.4,13.3,16.4,13.3,16.4C13.3,16.4,13.3,16.4,13.3,16.4C13.3,16.4,13.3,16.4,13.3,16.4
			C13.3,16.4,13.3,16.4,13.3,16.4C13.3,16.4,13.3,16.4,13.3,16.4z"/>
		<path id="_382520392" class="st16" d="M8.8,8.7H6.5v0c0-0.4,0.3-0.7,0.8-0.7h1.5C8.8,8.2,8.8,8.4,8.8,8.7z"/>
		<path id="_382543240" class="st17" d="M13.3,16.8L13.3,16.8c0,0,0.3-0.1,0.8-0.5c0,0,0.1,0,0.1,0c0.1,0,0.2,0.1,0.3,0.1
			C14.1,16.6,13.7,16.7,13.3,16.8z"/>
		<path id="_382573368" class="st18" d="M14.1,16.3C14.1,16.3,14.1,16.3,14.1,16.3c0,0,0.1,0,0.1,0c0,0,0,0,0,0
			C14.2,16.3,14.1,16.3,14.1,16.3z"/>
		<path id="_382541728" class="st19" d="M14.1,16.3C14.1,16.3,14.1,16.3,14.1,16.3c0.1,0,0.1,0,0.1,0C14.2,16.3,14.1,16.3,14.1,16.3
			z"/>
		<path id="_382522744" class="st4" d="M22.6,16.8H4c-0.5,0-0.8,0.4-0.8,0.8h20.2C23.4,17.2,23,16.8,22.6,16.8L22.6,16.8z"/>
		<path id="_382528344" class="st4" d="M20.4,7.2c0,0,1.8,5.7-4.3,9.6c0,0,4.9-3.5,3.7-9.6C19.8,7.2,20.4,7.2,20.4,7.2z"/>
		<path id="_382513000" class="st20" d="M20,8.8c0-0.3-0.2-0.5-0.5-0.5H7c-0.3,0-0.5,0.2-0.5,0.5c0,0.4,0,1,0.1,1.5h13.3
			C20,9.7,20,9.2,20,8.8z"/>
	</g>
</g>
</svg>
