<?xml version="1.0" encoding="utf-8"?>
<!-- Generator: Adobe Illustrator 19.2.1, SVG Export Plug-In . SVG Version: 6.00 Build 0)  -->
<svg version="1.1" id="Слой_1" xmlns="http://www.w3.org/2000/svg" xmlns:xlink="http://www.w3.org/1999/xlink" x="0px" y="0px"
	 viewBox="0 0 30.5 30.5" style="enable-background:new 0 0 30.5 30.5;" xml:space="preserve">
<style type="text/css">
	.st0{fill:#FEFEFE;}
	.st1{fill:#A63D20;}
	.st2{fill:#F9B004;}
	.st3{fill:#A54728;}
	.st4{fill:#FCD305;}
</style>
<g id="Layer_x0020_1">
	<g id="_373312096">
		<circle id="_380951616" class="st0" cx="15.2" cy="15.2" r="15.2"/>
		<g>
			<path id="_512328912" class="st1" d="M11,9.4c0,0,0-3.8,3.7-6c0,0,5.1,2,4.2,6.3c0,0,2.9-0.8,6.5,1.5c0,0,1.3,0.5,1.8-0.6
				c0,0-0.6,6.3-5,6.5l-0.3,0.1c0,0,1.3,1.2,0.6,4.2c-0.6,3,1.3,3.2,1.3,3.2S16,26,15.5,21.4c0,0-2.1,2.4-4.2,2.2
				c-2.1-0.2-1.4,2.5-1.4,2.5s-4.6-4.1-0.6-8.6c0,0-2.7-1.6-3-3.8C5.8,11.6,4,11.4,4,11.4S6.2,8.5,11,9.4L11,9.4z"/>
			<path id="_512280304" class="st2" d="M11.4,9.9c0,0,0.1-3.7,3.4-5.6c0,0,4.5,2,3.7,5.9c0,0,2.6-0.7,5.9,1.3c0,0,1.6,1.2,2,0.3
				c0,0-1,4.9-5,5l-0.3,0.1c0,0,1.1,1.1,0.6,3.8c-0.6,2.7,0.6,3.4,0.6,3.4s-6.5,0.8-6.9-3.3c0,0-1.9,2.2-3.8,2
				c-1.9-0.2-2.2,2.4-2.2,2.4s-3.2-3.9,0.4-8c0,0-2.4-1.4-2.8-3.4c-0.3-2-2-2.7-2-2.7S7.1,9.1,11.4,9.9z"/>
			<path id="_512286296" class="st0" d="M13.9,14c0,0,1.4,0.8,1.3-0.7l0.6,0c0,0,0,1.4,1.3,1c0,0-1.5,0.9-0.3,1.8l-0.5,0
				c0,0-0.6-1.2-1.5-0.1L14.5,16c0,0,0.6-1.1-0.8-1.5C13.7,14.5,13.9,14,13.9,14z"/>
			<path id="_512341400" class="st0" d="M16,12.6c0,0.9-0.2,1.6-0.5,1.6c-0.3,0-0.5-0.7-0.5-1.6c0-0.9,0.2-1.6,0.5-1.6
				C15.8,11,16,11.7,16,12.6z"/>
			<path id="_512308920" class="st3" d="M15.8,12.6c0,0.6-0.1,1.1-0.3,1.1c-0.2,0-0.3-0.5-0.3-1.1c0-0.6,0.1-1.1,0.3-1.1
				C15.7,11.5,15.8,12,15.8,12.6z"/>
			<path id="_512318440" class="st0" d="M14.7,17.2c-0.4,0.8-0.9,1.3-1.2,1.2c-0.2-0.1-0.1-0.9,0.3-1.7c0.4-0.8,0.9-1.3,1.2-1.2
				C15.2,15.7,15.1,16.5,14.7,17.2z"/>
			<path id="_512280024" class="st3" d="M14.5,17.2c-0.3,0.5-0.6,0.9-0.8,0.8c-0.2-0.1-0.1-0.6,0.2-1.1c0.3-0.5,0.6-0.9,0.8-0.8
				C14.9,16.2,14.8,16.7,14.5,17.2z"/>
			<path id="_512288984" class="st0" d="M13.1,13.6c0.9,0.3,1.5,0.7,1.4,0.9c-0.1,0.2-0.8,0.2-1.7-0.1c-0.9-0.3-1.5-0.7-1.4-0.9
				C11.5,13.3,12.2,13.3,13.1,13.6z"/>
			<path id="_512287752" class="st3" d="M13,13.8c0.6,0.2,1,0.5,0.9,0.6c-0.1,0.2-0.6,0.2-1.1,0c-0.6-0.2-1-0.5-0.9-0.6
				C12,13.6,12.5,13.6,13,13.8z"/>
			<path id="_512309816" class="st0" d="M18.2,15.1c-0.9,0-1.6-0.1-1.6-0.4c0-0.3,0.7-0.5,1.6-0.5c0.9,0,1.6,0.1,1.6,0.4
				C19.8,14.8,19.1,15,18.2,15.1z"/>
			<path id="_512332160" class="st3" d="M18.2,14.9c-0.6,0-1.1-0.1-1.1-0.3c0-0.2,0.5-0.3,1.1-0.4c0.6,0,1.1,0.1,1.1,0.3
				C19.2,14.7,18.7,14.9,18.2,14.9z"/>
			<path id="_512306288" class="st0" d="M17.5,16.9c0.4,0.8,0.6,1.5,0.3,1.7c-0.2,0.1-0.8-0.4-1.2-1.2c-0.4-0.8-0.6-1.5-0.3-1.7
				C16.5,15.6,17,16.1,17.5,16.9z"/>
			<path id="_512335072" class="st3" d="M17.3,17c0.3,0.5,0.4,1,0.2,1.1c-0.2,0.1-0.5-0.3-0.8-0.8c-0.3-0.5-0.4-1-0.2-1.1
				C16.7,16.1,17,16.5,17.3,17z"/>
			<path id="_512316032" class="st0" d="M14.7,3.4c0,0,0.6,1.9,0.9,3.9c0,0.2,0.1,0.5,0.1,0.7c0,0.2,0.1,0.5,0.1,0.7
				c0,0.2,0,0.5,0,0.7c0,0.2,0,0.4,0,0.6c0,0.2,0,0.4,0,0.5c0,0.2,0,0.3,0,0.4c0,0.2-0.1,0.3-0.1,0.3l-0.3-0.1c0,0,0-0.1,0.1-0.3
				c0-0.1,0-0.2,0.1-0.4c0-0.1,0-0.3,0-0.5c0-0.2,0-0.4,0-0.6c0-0.2,0-0.4,0-0.7c0-0.2,0-0.5-0.1-0.7c0-0.2,0-0.5-0.1-0.7
				c-0.1-1-0.3-2-0.5-2.7C14.8,3.9,14.7,3.4,14.7,3.4z"/>
			<path id="_512301752" class="st0" d="M4,11.4c0,0,0.1-0.1,0.3-0.1c0.1,0,0.2-0.1,0.4-0.1c0.2,0,0.3,0,0.5,0c0.2,0,0.4,0,0.6,0
				c0.2,0,0.4,0,0.7,0.1c0.2,0,0.5,0.1,0.7,0.2c0.1,0,0.2,0.1,0.4,0.1L8,11.6l0.4,0.1c0.1,0.1,0.2,0.1,0.3,0.1
				C9,12,9.2,12.1,9.4,12.2c0.2,0.1,0.4,0.2,0.6,0.3c0.2,0.1,0.4,0.2,0.5,0.3c0.3,0.2,0.6,0.4,0.8,0.5c0.2,0.1,0.3,0.2,0.3,0.2
				l-0.2,0.3c0,0-0.1-0.1-0.3-0.2c-0.2-0.1-0.4-0.3-0.7-0.5c-0.2-0.1-0.3-0.2-0.5-0.3c-0.2-0.1-0.4-0.2-0.6-0.3
				c-0.2-0.1-0.4-0.2-0.6-0.3C8.6,12,8.4,12,8.3,11.9L8,11.8l-0.4-0.1c-0.1,0-0.2-0.1-0.4-0.1c-0.2-0.1-0.5-0.1-0.7-0.2
				c-0.2,0-0.5-0.1-0.7-0.1c-0.2,0-0.4,0-0.6,0c-0.2,0-0.4,0-0.5,0c-0.2,0-0.3,0-0.4,0.1C4.2,11.3,4,11.4,4,11.4z"/>
			<path id="_512323648" class="st0" d="M13.6,18.4c0,0-0.6,0.3-1.4,0.7c-0.4,0.2-0.9,0.5-1.3,0.9c-0.2,0.2-0.5,0.4-0.7,0.6
				c-0.2,0.2-0.4,0.5-0.5,0.7c-0.1,0.3-0.2,0.6-0.3,0.9c-0.1,0.3-0.1,0.6-0.2,0.9c0,0.3,0,0.6,0,0.8c0,0.3,0,0.5,0.1,0.8
				c0,0.2,0.1,0.4,0.1,0.6c0.1,0.2,0.1,0.3,0.2,0.5c0.1,0.1,0.1,0.2,0.2,0.3c0,0.1,0.1,0.1,0.1,0.1s0,0-0.1-0.1
				c0-0.1-0.1-0.1-0.2-0.3c-0.1-0.1-0.1-0.3-0.2-0.5c-0.1-0.2-0.1-0.4-0.2-0.6c0-0.2-0.1-0.5-0.1-0.8c0-0.3,0-0.6,0-0.9
				c0-0.3,0.1-0.6,0.1-0.9c0.1-0.3,0.2-0.6,0.3-0.9c0.1-0.3,0.3-0.6,0.5-0.8c0.2-0.2,0.4-0.4,0.7-0.6c0.5-0.4,0.9-0.7,1.3-1
				c0.8-0.5,1.4-0.8,1.4-0.8S13.6,18.4,13.6,18.4z"/>
			<path id="_380960744" class="st0" d="M17.8,18.4C17.8,18.4,17.8,18.4,17.8,18.4c0,0.2,0,0.2,0,0.4c0,0.1,0,0.3,0.1,0.4
				c0,0.2,0.1,0.3,0.1,0.5c0.1,0.2,0.1,0.4,0.2,0.6c0.1,0.1,0.1,0.2,0.2,0.3c0.1,0.1,0.1,0.2,0.2,0.3c0.1,0.2,0.3,0.4,0.5,0.7
				c0.2,0.2,0.4,0.4,0.6,0.6c0.2,0.2,0.4,0.4,0.6,0.6c0.2,0.2,0.4,0.3,0.7,0.5c0.2,0.1,0.4,0.3,0.6,0.4c0.2,0.1,0.4,0.2,0.6,0.3
				c0.1,0,0.2,0.1,0.3,0.1c0.1,0,0.2,0.1,0.3,0.1c0.2,0.1,0.3,0.1,0.4,0.2c0.2,0.1,0.4,0.1,0.4,0.1s-0.1,0-0.4-0.1
				c-0.1,0-0.3-0.1-0.4-0.1c-0.1,0-0.2-0.1-0.3-0.1c-0.1,0-0.2-0.1-0.3-0.1c-0.2-0.1-0.4-0.2-0.6-0.3c-0.2-0.1-0.4-0.2-0.7-0.4
				c-0.2-0.1-0.4-0.3-0.7-0.5c-0.2-0.1-0.4-0.4-0.7-0.5c-0.2-0.2-0.4-0.4-0.6-0.6c-0.2-0.2-0.4-0.4-0.5-0.7
				c-0.1-0.1-0.1-0.2-0.2-0.3c-0.1-0.1-0.1-0.2-0.2-0.3c-0.1-0.2-0.2-0.4-0.3-0.6c-0.1-0.2-0.1-0.4-0.2-0.6c0-0.2-0.1-0.3-0.1-0.5
				c0-0.1,0-0.2,0-0.3c0-0.1,0-0.1,0-0.1S17.8,18.4,17.8,18.4z"/>
			<path id="_380964552" class="st0" d="M19.4,14.4c0,0,0.5,0,1.4-0.2c0.8-0.1,1.9-0.4,2.9-0.7c0.5-0.2,1-0.4,1.5-0.7
				c0.4-0.3,0.8-0.6,1.1-0.9c0.1-0.2,0.3-0.3,0.4-0.4c0.1-0.1,0.2-0.3,0.2-0.4C27,11,27,10.9,27,10.9c0-0.1,0-0.1,0-0.1s0,0,0,0.1
				c0,0.1-0.1,0.2-0.1,0.3c-0.1,0.1-0.1,0.2-0.2,0.4c-0.1,0.1-0.2,0.3-0.3,0.5c-0.3,0.3-0.6,0.6-1.1,0.9c-0.4,0.3-0.9,0.6-1.5,0.8
				c-1,0.4-2.1,0.7-3,0.9c-0.8,0.2-1.4,0.2-1.4,0.2S19.4,14.4,19.4,14.4z"/>
			<path id="_380956656" class="st4" d="M15.9,14.9c0,0.2-0.1,0.3-0.3,0.3c-0.2,0-0.3-0.1-0.3-0.3c0-0.2,0.1-0.3,0.3-0.3
				C15.7,14.6,15.9,14.7,15.9,14.9z"/>
		</g>
	</g>
</g>
</svg>
