<?xml version="1.0" encoding="utf-8"?>
<!-- Generator: Adobe Illustrator 19.2.1, SVG Export Plug-In . SVG Version: 6.00 Build 0)  -->
<svg version="1.1" id="Слой_1" xmlns="http://www.w3.org/2000/svg" xmlns:xlink="http://www.w3.org/1999/xlink" x="0px" y="0px"
	 viewBox="0 0 30.5 30.5" style="enable-background:new 0 0 30.5 30.5;" xml:space="preserve">
<style type="text/css">
	.st0{fill:#FEFEFE;}
	.st1{fill:#A63D20;}
	.st2{fill:#F9B004;}
	.st3{fill:#FECC00;}
	.st4{fill:none;stroke:#F9B004;stroke-width:0.25;stroke-linecap:round;stroke-linejoin:round;}
	.st5{fill:#6F4F29;}
</style>
<g id="Layer_x0020_1">
	<g id="_511000488">
		<circle id="_374980280" class="st0" cx="15.2" cy="15.2" r="15.2"/>
		<g>
			<path id="_374946400" class="st1" d="M9.7,23.4c-2.8,0-5.1-2.3-5.1-5.1c0-2.8,2.4-6.2,5.1-4.1c1,0.8,2.1-0.5,3.4,0.3
				c1.6,0.9,1.9,2.9,1.7,4.6C14.5,21.4,12.8,23.4,9.7,23.4L9.7,23.4z"/>
			<path id="_374979720" class="st2" d="M23.7,8.6c-5.1,3.5-6.4-0.3-6.5-0.6C18,8.2,21.2,9,23.7,8.6C23.7,8.6,23.7,8.6,23.7,8.6z"/>
			<path id="_375001504" class="st3" d="M17.2,8C17.2,8,17.2,8,17.2,8c1.6-4.3,6.5,0.5,6.5,0.6C21.2,9,18,8.2,17.2,8z"/>
			<path id="_374995792" class="st1" d="M24.8,19.1c0,2.4-1.5,4.3-3.9,4.3c-2.4,0-4.8-1.8-4.8-4.3c0-1.3,0.3-2.5,1.3-3
				c0.5-0.2,1.1-0.3,2-0.1c0.4,0.1,0.5-1.1,1.7-1.3C23.5,14.6,24.8,16.7,24.8,19.1L24.8,19.1z"/>
			<path id="_374985768" class="st4" d="M17.1,7.6c-0.7,1.6-7.1,4.1-7.1,8.1"/>
			<path id="_518940464" class="st4" d="M17.1,7.6c-0.1,3.2,0.2,5.6,2.5,8.5"/>
			<path id="_518951104" class="st5" d="M17.4,7.6c0,0,0.2-0.6,0.5-1.4c0.4-1.1,0.7-2.5,0.5-2.8c0,0-0.8-0.2-0.7,0.1
				c0.1,0.4-0.1,1.7-0.4,2.7C17.2,6.5,17.1,6.8,17,7C16.7,7.7,16.3,7.9,17.4,7.6z"/>
			<path id="_518910616" class="st0" d="M6.8,15.4c-1.1,1.7,0.1,2.9,1.4,1c0.4-0.6,0.6-1.4,0.1-1.7C8,14.4,7.2,14.7,6.8,15.4z"/>
			<path id="_518933240" class="st0" d="M17.5,17.8c-0.2,1.6,1.1,2.1,1.4,0.2c0.1-0.6,0-1.2-0.5-1.3C18,16.7,17.5,17.2,17.5,17.8z"
				/>
		</g>
	</g>
</g>
</svg>
