<svg xmlns="http://www.w3.org/2000/svg" viewBox="0 0 7.39 7.39">
	<g>
		<path class="cls-1" d="M2.1.63A1.47,1.47,0,0,0,.63,2.1V5.29A1.47,1.47,0,0,0,2.1,6.76H5.29A1.47,1.47,0,0,0,6.76,5.29V2.1A1.47,1.47,0,0,0,5.29.63ZM5.29,7.39H2.1A2.11,2.11,0,0,1,0,5.29V2.1A2.11,2.11,0,0,1,2.1,0H5.29a2.11,2.11,0,0,1,2.1,2.1V5.29A2.11,2.11,0,0,1,5.29,7.39Z" />
		<path class="cls-1" d="M3.7,2.44A1.26,1.26,0,1,0,5,3.7,1.26,1.26,0,0,0,3.7,2.44Zm0,3.15A1.89,1.89,0,1,1,5.59,3.7,1.89,1.89,0,0,1,3.7,5.59Z" />
		<path class="cls-1" d="M6.12,1.7a.45.45,0,1,1-.45-.45A.45.45,0,0,1,6.12,1.7Z" />
	</g>
</svg>