<svg xmlns="http://www.w3.org/2000/svg" viewBox="0 0 7.63 4.47">
	<g>
		<path class="cls-1" d="M7.58.34A2.05,2.05,0,0,0,6.75.27a4.74,4.74,0,0,0-.82,0,5.1,5.1,0,0,0-.49.9c-.26.5-.58,1-.79,1s-.2-.82-.19-1.42c0-.4-.05-.52-.11-.56A2.37,2.37,0,0,0,3.83,0S2.68-.08,2.52.42c.22,0,.6,0,.45,1.5,0,.07-.18.71-.71-.15C2.12,1.56,1.61.27,1.43.27A4.06,4.06,0,0,0,0,.34c-.19.11.26,1,1,2.17a3.56,3.56,0,0,0,2.4,1.91,2.78,2.78,0,0,0,.94,0c.12-.06,0-.9.38-1,.18,0,.86.87,1.12,1a2.69,2.69,0,0,0,.86.08c.39,0,.82,0,.86-.23.09-.58-1.16-1.33-1.2-1.69s.46-.73.71-1.09S7.77.51,7.58.34Z" />
	</g>
</svg>